<?xml version="1.0" standalone="no"?>
<!DOCTYPE svg PUBLIC "-//W3C//DTD SVG 1.1//EN" "http://www.w3.org/Graphics/SVG/1.1/DTD/svg11.dtd" >
<svg xmlns="http://www.w3.org/2000/svg">
<metadata></metadata>
<defs>
<font id="fs_joeybold" horiz-adv-x="1105" >
<font-face units-per-em="2048" ascent="1536" descent="-512" />
<missing-glyph horiz-adv-x="460" />
<glyph unicode="&#xfb01;" horiz-adv-x="1175" d="M29 844v86q0 24 7.5 31t33.5 12l114 20v80q0 172 109.5 250t345.5 78q135 0 262 -25q24 -5 30 -11.5t3 -27.5l-21 -127q-3 -22 -10.5 -27t-30.5 -1q-92 18 -223 18q-122 0 -171.5 -30.5t-49.5 -110.5v-55h561q34 0 46 -10.5t12 -41.5v-901q0 -30 -12 -40.5t-46 -10.5 h-129q-34 0 -45.5 10t-11.5 41v748h-375v-748q0 -31 -11.5 -41t-45.5 -10h-129q-34 0 -46 10.5t-12 40.5v748h-104q-29 0 -40 9.5t-11 35.5z" />
<glyph unicode="&#xfb02;" horiz-adv-x="1259" d="M29 844v86q0 24 7.5 31t33.5 12l114 20v80q0 170 93.5 251t291.5 81q116 0 262 -25l152 6q33 1 45 -9.5t12 -41.5v-1063q0 -37 14 -52t46 -15h61q27 0 37 -10.5t10 -38.5v-107q0 -29 -10 -39t-37 -10h-137q-64 0 -102 11t-66 38q-59 59 -59 201v934q-75 22 -162 22 q-116 0 -161.5 -30t-45.5 -117v-55h190q28 0 38 -10t10 -36v-118q0 -24 -11 -32.5t-41 -8.5h-186v-748q0 -31 -11.5 -41t-45.5 -10h-129q-34 0 -46 10.5t-12 40.5v748h-104q-29 0 -40 9.5t-11 35.5z" />
<glyph horiz-adv-x="2048" />
<glyph horiz-adv-x="2048" />
<glyph unicode="&#xd;" horiz-adv-x="2048" />
<glyph unicode=" "  horiz-adv-x="460" />
<glyph unicode="&#x09;" horiz-adv-x="460" />
<glyph unicode="&#xa0;" horiz-adv-x="460" />
<glyph unicode="!" horiz-adv-x="440" d="M74 119v10q0 67 39 101t100 34h8q64 0 100.5 -33.5t36.5 -101.5v-10q0 -66 -37 -101.5t-100 -35.5h-8q-73 0 -106 34t-33 103zM82 1280q-2 44 16 62t72 18h102q56 0 72 -17.5t14 -62.5l-30 -862q-1 -42 -22 -55t-68 -13h-41q-47 0 -65 12.5t-19 53.5z" />
<glyph unicode="&#x22;" horiz-adv-x="931" d="M94 1427q-3 43 35 43h207q38 0 35 -43l-25 -495q0 -37 -35 -37h-159q-33 0 -33 37zM561 1427q-3 43 35 43h207q38 0 35 -43l-25 -495q0 -37 -35 -37h-160q-32 0 -32 37z" />
<glyph unicode="#" horiz-adv-x="1314" d="M3.5 375q-7.5 15 4.5 65l17 70q9 39 23.5 51t51.5 12h185l34 150h-186q-38 0 -45.5 15.5t4.5 64.5l17 69q9 40 23.5 52t51.5 12h185l75 336q7 33 30.5 45t62.5 12h102q48 0 60.5 -11t2.5 -52l-75 -330h168l75 336q7 33 30.5 45t62.5 12h104q47 0 58.5 -10.5t2.5 -52.5 l-75 -330h213q38 0 45.5 -15t-4.5 -65l-17 -70q-9 -39 -24 -51t-52 -12h-210l-35 -150h213q38 0 45.5 -14.5t-4.5 -64.5l-17 -70q-9 -39 -24 -51.5t-52 -12.5h-208l-70 -303q-7 -32 -24 -44.5t-52 -12.5h-119q-42 0 -55.5 13.5t-5.5 49.5l68 297h-168l-70 -303 q-7 -34 -24 -45.5t-58 -11.5h-113q-48 0 -59.5 11t-1.5 52l68 297h-189q-38 0 -45.5 15zM543 573h168l34 150h-167z" />
<glyph unicode="$" d="M115 113l22 120q4 25 24 32.5t40 -1.5q137 -57 270 -69v389l-29 6q-99 22 -154.5 48t-94.5 69q-78 84 -78 249v27q0 194 118 283q89 66 265 75v150q0 23 8.5 30t36.5 7h57q28 0 36.5 -7t8.5 -30v-150q132 -8 254 -43q47 -13 35 -59l-31 -129q-9 -43 -63 -25 q-105 32 -195 41v-348l41 -8q183 -39 252 -125q61 -77 61 -235v-31q0 -203 -110 -301q-88 -79 -271 -92v-138q0 -23 -8.5 -29.5t-36.5 -6.5h-57q-28 0 -36.5 6.5t-8.5 29.5v136q-173 9 -317 63q-29 11 -37 24t-2 42zM367 961q0 -73 32 -105q28 -28 99 -47v317 q-58 -9 -84 -26q-47 -29 -47 -123v-16zM618 201q54 9 89 37q41 34 41 133v16q0 78 -25 109q-26 32 -105 55v-350z" />
<glyph unicode="%" horiz-adv-x="1822" d="M129 956v21q0 210 92 297q75 69 211 69t211 -69q92 -90 92 -297v-21q0 -204 -92 -294q-75 -72 -211 -72t-211 72q-92 87 -92 294zM362 958q0 -103 16 -140.5t54 -37.5q37 0 52.5 38t15.5 140v17q0 102 -15.5 140t-52.5 38q-38 0 -54 -37.5t-16 -140.5v-17zM424 55 l723 1241q15 27 34 37t54 10h123q75 0 33 -73l-723 -1241q-15 -27 -34 -37t-54 -10h-123q-75 0 -33 73zM1087 348v21q0 209 93 297q75 69 211 69t211 -69q92 -90 92 -297v-21q0 -205 -92 -295q-74 -71 -211 -71t-211 71q-93 88 -93 295zM1321 350q0 -103 16 -140.5t54 -37.5 q37 0 52 37.5t15 140.5v17q0 103 -15 140.5t-52 37.5q-38 0 -54 -37.5t-16 -140.5v-17z" />
<glyph unicode="&#x26;" horiz-adv-x="1265" d="M57 340v33q0 106 68.5 199.5t175.5 138.5q-76 66 -119 142.5t-43 145.5v23q0 143 109 232t289 89q178 0 283.5 -88.5t105.5 -226.5v-27q0 -217 -244 -356l231 -225q15 52 15 129v57q0 21 8 29t29 8h139q20 0 27.5 -7.5t7.5 -29.5v-98q0 -166 -49 -256l129 -123 q26 -25 25.5 -40t-27.5 -42l-72 -72q-24 -22 -39.5 -21.5t-38.5 23.5l-117 111q-145 -106 -377 -106h-36q-243 0 -361.5 93t-118.5 265zM315 352q0 -84 66 -128t180 -44h31q129 0 203 58l-361 346q-119 -80 -119 -211v-21zM393 1006q0 -49 28 -93t81 -96l49 -47 q121 84 121 221v19q0 66 -36 101.5t-99 35.5q-66 0 -105 -33.5t-39 -93.5v-14z" />
<glyph unicode="'" horiz-adv-x="464" d="M94 1427q-3 43 35 43h207q38 0 35 -43l-25 -495q0 -37 -35 -37h-159q-33 0 -33 37z" />
<glyph unicode="(" horiz-adv-x="655" d="M92 573q0 436 297 783q26 30 46 31.5t54 -17.5l62 -31q40 -20 48 -37t-11 -42q-238 -315 -238 -682q0 -193 53 -350.5t179 -323.5q19 -25 19.5 -41.5t-9 -24.5t-33.5 -20l-67 -35q-39 -23 -59 -20.5t-48 36.5q-293 358 -293 774z" />
<glyph unicode=")" horiz-adv-x="655" d="M53 -146.5q-4 15.5 21 50.5q126 163 178.5 321t52.5 353q0 368 -237 682q-19 25 -11.5 42t47.5 37l62 31q34 19 54 17.5t46 -31.5q297 -347 297 -783q0 -416 -293 -774q-29 -35 -44 -38t-50 16l-88 45q-31 16 -35 31.5z" />
<glyph unicode="*" horiz-adv-x="794" d="M66 1231l36 108q13 35 52 15l170 -72l-21 197q-4 24 1 34.5t28 10.5h133q23 0 28 -10.5t1 -34.5l-21 -197l170 72q40 21 51 -15l35 -108q12 -30 -18 -39l-207 -57l153 -156q18 -18 18 -37t-18 -31l-96 -61q-17 -11 -28.5 -11t-18.5 7t-16 24l-101 183l-100 -183 q-14 -24 -25 -29.5t-39 9.5l-96 61q-18 12 -18 31t18 37l154 156l-207 57q-31 6 -18 39z" />
<glyph unicode="+" d="M66 494v73q0 20 1.5 31.5t8.5 23t22.5 16.5t40.5 5h293v309q0 43 19 56.5t67 13.5h68q44 0 66 -14t22 -56v-309h293q47 0 60 -18t13 -58v-78q0 -26 -6 -41.5t-19 -21.5t-22 -7t-26 -1h-293v-314q0 -36 -22.5 -50.5t-65.5 -14.5h-74q-42 0 -61 14t-19 51v314h-293 q-48 0 -60.5 17t-12.5 59z" />
<glyph unicode="," horiz-adv-x="458" d="M51 -248q38 51 88 137q20 35 20.5 54.5t-18.5 31.5l-22 15q-24 14 -34.5 36t-10.5 64v62q0 59 36 88.5t101 29.5h39q63 0 99 -32.5t36 -96.5v-39q0 -87 -55 -214t-131 -216q-19 -22 -33 -24.5t-45 14.5l-51 29q-47 26 -19 61z" />
<glyph unicode="-" horiz-adv-x="681" d="M68 496v69q0 39 14.5 57.5t62.5 18.5h392q48 0 62.5 -18.5t14.5 -57.5v-73q0 -26 -6.5 -41.5t-20 -21.5t-23 -7.5t-27.5 -1.5h-392q-49 0 -63 17.5t-14 58.5z" />
<glyph unicode="." horiz-adv-x="430" d="M74 113v32q0 67 35.5 98t95.5 31h22q129 0 129 -129v-32q0 -65 -34 -98t-95 -33h-22q-70 0 -100.5 31.5t-30.5 99.5z" />
<glyph unicode="/" horiz-adv-x="808" d="M61 14l437 1332q12 37 30 48t64 11h84q57 0 70.5 -12t1.5 -50l-437 -1331q-12 -37 -30 -48t-64 -11h-84q-57 0 -70.5 12t-1.5 49z" />
<glyph unicode="0" d="M70 637v53q0 317 115.5 485t367.5 168t367.5 -168t115.5 -485v-53q0 -317 -115.5 -486t-367.5 -169t-367.5 169t-115.5 486zM324 649q0 -64 2.5 -113.5t10.5 -106t24 -97t40.5 -75t63 -52t88.5 -17.5t88.5 17.5t63 52t40.5 75t24 97t10.5 106t2.5 113.5v27 q0 64 -2.5 113.5t-10.5 106t-24 97t-40.5 75t-63 52t-88.5 17.5t-88.5 -17.5t-63 -52t-40.5 -75t-24 -97t-10.5 -106t-2.5 -113.5v-27z" />
<glyph unicode="1" d="M141 1077q-29 49 17 74l284 152q20 11 37 16t27 5.5t37 0.5h102q43 0 58.5 -13.5t15.5 -51.5v-1059h219q36 0 49.5 -14.5t13.5 -51.5v-74q0 -39 -11 -50t-52 -11h-719q-36 0 -49.5 14.5t-13.5 51.5v73q0 39 11 50.5t52 11.5h242v870h-12l-191 -98q-46 -25 -68 12z" />
<glyph unicode="2" d="M117 59v121q0 349 268 471l162 74q105 47 139.5 94.5t34.5 143.5v14q0 82 -43.5 120t-140.5 38q-131 0 -285 -62q-51 -18 -62 25l-26 106q-5 25 1 38.5t30 23.5q80 34 180.5 55.5t191.5 21.5q189 0 301.5 -84.5t112.5 -259.5v-28q0 -155 -63.5 -247t-210.5 -159l-152 -69 q-104 -47 -148.5 -104.5t-44.5 -153.5v-37h543q33 0 46.5 -12t13.5 -46v-90q0 -32 -13.5 -42.5t-46.5 -10.5h-715q-42 0 -57.5 12t-15.5 47z" />
<glyph unicode="3" d="M113 109l22 79q11 34 25 43.5t45 -0.5q53 -19 133.5 -34t138.5 -15q141 0 201 54q51 45 51 145v16q0 105 -59 150q-34 26 -77 35.5t-128 9.5h-82q-31 0 -40 9t-9 38v104q0 29 10 40.5t41 11.5h51q124 0 195 47q63 43 63 149v15q0 79 -51 110q-45 27 -131 27 q-58 0 -133 -19t-135 -45q-47 -20 -60 27l-26 98q-7 24 -1 40t31 26q76 32 175 52.5t184 20.5q187 0 289 -69q116 -80 116 -252v-23q0 -108 -45.5 -184t-140.5 -106q111 -29 166 -108t55 -200v-32q0 -177 -110 -279q-120 -108 -383 -108q-74 0 -173 14.5t-167 36.5 q-31 9 -40.5 26t-0.5 50z" />
<glyph unicode="4" d="M33 362v64q0 6 1.5 13.5t3 13t5.5 14t6.5 13.5t8.5 15t8.5 14.5t10 16t9.5 15.5l469 725q23 37 41 48t53 11h170q46 0 63 -15t17 -57v-739h115q36 0 46.5 -13.5t10.5 -51.5v-80q0 -40 -8.5 -51t-48.5 -11h-115v-248q0 -35 -12 -47t-47 -12h-131q-35 0 -47.5 12t-12.5 47 v248h-551q-38 0 -51.5 11t-13.5 44zM293 514h356v543h-10z" />
<glyph unicode="5" d="M106.5 91q-3.5 18 8.5 52l22 78q10 32 27 39.5t43 -4.5q71 -30 155 -51t144 -21q136 0 192 47q58 50 58 175v22q0 112 -56 168q-53 53 -159 53q-119 0 -238 -55q-44 -20 -70 -4l-57 35q-15 9 -19.5 20.5t-2.5 36.5l36 592q2 28 14 39.5t44 11.5h612q35 0 45 -10t10 -43 v-103q0 -31 -10.5 -40t-48.5 -9h-424q-15 0 -21.5 -5.5t-7.5 -20.5l-14 -283q93 41 219 41q205 0 303 -104q51 -54 75 -124.5t24 -179.5v-34q0 -204 -127 -324q-60 -57 -147.5 -80.5t-219.5 -23.5q-94 0 -197.5 22t-185.5 59q-23 10 -26.5 28z" />
<glyph unicode="6" d="M92 604v82q0 162 37 296.5t109 211.5q76 84 172 116.5t233 32.5q67 0 140.5 -12.5t119.5 -30.5q26 -9 33.5 -21.5t1.5 -39.5l-27 -102q-6 -25 -19 -32t-42 1q-101 33 -201 33q-141 0 -213 -84q-79 -91 -82 -277q49 32 121.5 53t138.5 21q191 0 295 -98q113 -104 113 -310 v-30q0 -197 -117 -314q-121 -118 -336 -118q-111 0 -193.5 28.5t-136.5 79.5t-87 130t-46.5 171.5t-13.5 212.5zM350 571q0 -231 58 -317q26 -38 63.5 -55t97.5 -17q92 0 146 54q53 56 53 167v25q0 104 -39 154q-46 61 -151 61q-127 0 -228 -72z" />
<glyph unicode="7" d="M115 1174v92q0 34 12 46.5t47 12.5h774q35 0 49.5 -10.5t14.5 -40.5v-62q0 -12 -2.5 -25t-5 -21.5t-10 -25.5t-11 -24t-15.5 -30t-16 -31l-499 -1010q-12 -25 -31 -35t-55 -10h-146q-69 0 -43 51l547 1069h-551q-35 0 -47 11t-12 43z" />
<glyph unicode="8" d="M80 338v24q0 100 57 184.5t150 133.5q-85 55 -127.5 127.5t-42.5 177.5v12q0 157 120.5 251.5t323.5 94.5q118 0 214 -37t156 -114.5t60 -183.5v-15q0 -190 -174 -301q114 -60 160.5 -135.5t46.5 -177.5v-25q0 -89 -38 -165.5t-99 -118.5q-124 -88 -326 -88 q-98 0 -192 22.5t-146 58.5q-143 98 -143 275zM340 367q0 -95 59 -142q57 -45 162 -45q110 0 162 49q43 40 43 125v8q0 65 -53 110t-183 93l-79 31q-111 -71 -111 -221v-8zM367 991q0 -64 44 -107.5t152 -84.5l74 -29q96 75 96 203v12q0 85 -49 125q-42 39 -127 39 q-87 0 -131 -35q-59 -44 -59 -113v-10z" />
<glyph unicode="9" d="M94 885v33q0 191 113 307q115 118 340 118q117 0 198.5 -28t143.5 -92q135 -140 135 -510v-66q0 -352 -137 -508q-75 -88 -175 -122.5t-239 -34.5q-161 0 -276 41q-19 6 -25 17t-2 32l27 114q6 26 16.5 31.5t38.5 -2.5q103 -29 217 -29q155 0 223 80q36 42 49 104t17 162 q-111 -65 -246 -65q-199 0 -303 98q-115 106 -115 320zM348 891q0 -104 39 -154q46 -61 152 -61q118 0 227 78q0 232 -57 317q-26 38 -64 55t-98 17q-104 0 -156 -62q-43 -51 -43 -166v-24z" />
<glyph unicode=":" horiz-adv-x="487" d="M102 113v32q0 67 35.5 98t95.5 31h23q129 0 129 -129v-32q0 -65 -34 -98t-95 -33h-23q-70 0 -100.5 31.5t-30.5 99.5zM102 893v33q0 67 35.5 98t95.5 31h23q129 0 129 -129v-33q0 -65 -34 -98t-95 -33h-23q-70 0 -100.5 31.5t-30.5 99.5z" />
<glyph unicode=";" horiz-adv-x="458" d="M51 -248q38 51 88 137q20 35 20.5 54.5t-18.5 31.5l-22 15q-24 14 -34.5 36t-10.5 64v62q0 59 36 88.5t101 29.5h39q63 0 99 -32.5t36 -96.5v-39q0 -87 -55 -214t-131 -216q-19 -22 -33 -24.5t-45 14.5l-51 29q-47 26 -19 61zM84 893v33q0 67 35.5 98t95.5 31h23 q129 0 129 -129v-33q0 -65 -34 -98t-95 -33h-23q-70 0 -100.5 31.5t-30.5 99.5z" />
<glyph unicode="&#x3c;" d="M94 508v51q0 25 8 39.5t29 26.5l698 370q40 22 57 20t32 -30l57 -104q16 -30 6.5 -47.5t-47.5 -38.5l-492 -260l492 -261q35 -19 45.5 -37t-4.5 -49l-57 -104q-13 -24 -30.5 -27t-58.5 17l-698 368q-21 12 -29 26.5t-8 39.5z" />
<glyph unicode="=" d="M66 268v74q0 20 1.5 31.5t8.5 23t22.5 16.5t40.5 5h828q47 0 60 -18t13 -58v-78q0 -26 -6 -41.5t-19 -21.5t-22 -7t-26 -1h-828q-48 0 -60.5 16.5t-12.5 58.5zM66 719v74q0 20 1.5 31t8.5 22.5t22.5 16.5t40.5 5h828q47 0 60 -17.5t13 -57.5v-78q0 -26 -6 -41.5 t-19 -21.5t-22 -7.5t-26 -1.5h-828q-48 0 -60.5 17t-12.5 59z" />
<glyph unicode="&#x3e;" d="M118.5 849q1.5 10 10.5 25l57 105q16 29 33 33t57 -17l699 -370q21 -12 29 -26.5t8 -39.5v-51q0 -25 -8 -39.5t-29 -26.5l-699 -368q-41 -20 -58 -17t-30 27l-57 104q-15 31 -4.5 49t45.5 37l492 261l-492 260q-21 12 -31 18.5t-17 16t-5.5 19.5z" />
<glyph unicode="?" horiz-adv-x="911" d="M63 1204q-14 50 33 68q70 30 164.5 50.5t183.5 20.5q190 0 296 -82.5t106 -248.5v-27q0 -201 -207 -340l-64 -43q-93 -61 -118 -88q-5 -5 -8.5 -11.5t-5.5 -15t-3 -15.5t-1.5 -19t-0.5 -18.5v-21v-20.5q0 -41 -51 -41h-113q-45 0 -45 41v40v38.5t1 29.5t3 31t5.5 24 t9.5 26q20 42 53.5 72.5t91.5 68.5l66 43q74 48 104.5 94t30.5 113v22q0 76 -43 113q-43 35 -139 35q-115 0 -256 -56q-49 -19 -66 29zM190 119v10q0 67 39.5 101t100.5 34h8q64 0 100.5 -33.5t36.5 -101.5v-10q0 -66 -37 -101.5t-100 -35.5h-8q-74 0 -107 34t-33 103z" />
<glyph unicode="@" horiz-adv-x="1652" d="M82 586q0 190 61.5 344t171 255.5t259 155.5t327.5 54q142 0 263.5 -40.5t212.5 -117t142.5 -195t51.5 -266.5q0 -234 -113 -369t-291 -135q-89 0 -154.5 29.5t-94.5 77.5h-7q-55 -72 -172 -72h-14q-227 0 -227 223q0 88 24 230q24 133 89.5 196.5t174.5 63.5h13 q128 0 186 -80l14 31q7 17 15 21.5t30 4.5h93q25 0 33.5 -7t5.5 -29l-50 -383q-10 -83 -10 -99q0 -27 19 -42t51 -15q72 0 121 88.5t49 237.5q0 224 -128.5 341t-344.5 117q-254 0 -403.5 -157.5t-149.5 -448.5q0 -477 522 -477q86 0 199 18t196 47q22 8 34.5 3t16.5 -27 l19 -84q4 -24 -4 -36.5t-31 -20.5q-92 -36 -216 -60t-235 -24q-369 0 -559 166t-190 481zM721 541q0 -46 15 -64t52 -18h11q46 0 68.5 31t31.5 98l23 164q15 108 -74 108h-12q-39 0 -60 -26t-31 -89q-24 -127 -24 -204z" />
<glyph unicode="A" horiz-adv-x="1165" d="M11 33.5q0 8.5 3 19.5q161 582 383 1198q17 46 43.5 60t91.5 14h101q65 0 93.5 -14t45.5 -60q194 -529 379 -1198q3 -11 3 -19.5t-1.5 -14t-7.5 -9.5t-10.5 -6t-16 -3t-18.5 -1h-23h-108q-42 0 -60.5 10.5t-27.5 42.5l-68 252h-459l-67 -252q-9 -32 -27.5 -42.5 t-60.5 -10.5h-109h-23.5t-19 1t-16 3t-11 6t-8 9.5t-1.5 14zM414 520h340q-85 303 -158 543h-25q-60 -199 -157 -543z" />
<glyph unicode="B" horiz-adv-x="1140" d="M139 98v1143q0 45 15 62.5t57 23.5q122 16 270 16q267 0 389 -94q109 -83 109 -239v-33q0 -188 -158 -262q110 -29 174 -105t64 -196v-29q0 -187 -117 -279q-135 -106 -453 -106q-151 0 -274 10q-45 4 -60.5 22.5t-15.5 65.5zM397 248q0 -18 5.5 -25t23.5 -10 q40 -6 109 -6q140 0 200 43q60 45 60 135v25q0 89 -64 137q-61 43 -184 43h-150v-342zM397 788h99q106 0 162.5 40.5t56.5 132.5v24q0 75 -47 113q-46 37 -150 37q-71 0 -98 -2q-23 -3 -23 -31v-314z" />
<glyph unicode="C" horiz-adv-x="1091" d="M98 621v81q0 219 39 341.5t139 203.5q122 96 359 96q210 0 366 -92q17 -9 21 -21q1 -4 0 -8q0 -12 -6 -30l-49 -123q-9 -24 -31 -24q-15 0 -35 12q-134 73 -266 73q-73 0 -117.5 -15t-77.5 -48q-45 -45 -61.5 -134t-16.5 -251v-37q0 -158 16.5 -244t53.5 -131 q63 -75 230 -75q135 0 262 55q13 5 24 5q29 0 37 -38l25 -98q7 -30 -0.5 -45.5t-42.5 -28.5q-158 -63 -336 -63q-145 0 -240 27.5t-158 90.5q-73 73 -104 195.5t-31 325.5z" />
<glyph unicode="D" horiz-adv-x="1263" d="M139 86v1151q0 45 15.5 63t56.5 23q123 12 287 12q180 0 298 -33t201 -104q87 -76 127.5 -191.5t40.5 -285.5v-117q0 -331 -180 -471q-94 -73 -215.5 -103t-325.5 -30q-203 0 -233 2q-41 3 -56.5 20.5t-15.5 63.5zM397 254q0 -26 11 -36.5t38 -10.5h64q216 0 303.5 94 t87.5 322v90q0 120 -17.5 195.5t-63.5 126t-121.5 71t-194.5 20.5q-52 0 -72 -2q-19 -2 -27 -10t-8 -27v-833z" />
<glyph unicode="E" horiz-adv-x="1019" d="M106 621v84q0 209 19 382q14 139 80 193q57 45 211 45h471q34 0 42.5 -9t8.5 -40v-113q0 -30 -8.5 -39.5t-42.5 -9.5h-447q-31 0 -47.5 -13.5t-19.5 -47.5q-13 -156 -13 -265h459q34 0 42.5 -9t8.5 -40v-112q0 -30 -8.5 -39.5t-42.5 -9.5h-459q0 -154 15 -310 q3 -34 17 -45.5t48 -11.5h445q34 0 43.5 -9.5t9.5 -39.5v-113q0 -29 -9.5 -39t-43.5 -10h-469q-159 0 -219 49q-32 26 -47 69t-25 120q-19 173 -19 383z" />
<glyph unicode="F" horiz-adv-x="1013" d="M135 51v1034q0 116 58 177q60 63 184 63h506q31 0 42 -10t11 -39v-113q0 -28 -11 -38.5t-42 -10.5h-428q-31 0 -45 -14q-17 -17 -17 -53v-273h459q30 0 39.5 -9.5t9.5 -39.5v-113q0 -29 -9.5 -39t-39.5 -10h-459v-512q0 -32 -10.5 -41.5t-44.5 -9.5h-148q-34 0 -44.5 9.5 t-10.5 41.5z" />
<glyph unicode="G" horiz-adv-x="1214" d="M98 625v80q0 367 160 514q135 124 436 124q95 0 197.5 -23.5t163.5 -55.5q24 -12 24 -39q0 -11 -4 -25l-39 -117q-6 -21 -23.5 -26.5t-37.5 4.5q-60 29 -142 49t-153 20q-167 0 -234 -75q-84 -94 -84 -369v-45q0 -153 14 -232.5t52 -129.5q62 -84 236 -84q99 0 157 8 q19 3 26 11t7 28v297h-152q-32 0 -43.5 9.5t-11.5 37.5v114q0 30 11.5 41t43.5 11h361q27 0 38 -12.5t11 -39.5v-594q0 -38 -10 -53t-43 -24q-174 -47 -383 -47q-167 0 -268.5 29.5t-169.5 97.5q-75 73 -107.5 199t-32.5 317z" />
<glyph unicode="H" horiz-adv-x="1294" d="M139 51v1223q0 32 11 41.5t45 9.5h147q34 0 44.5 -9.5t10.5 -41.5v-496h500v496q0 32 10.5 41.5t44.5 9.5h148q34 0 44.5 -9.5t10.5 -41.5v-1223q0 -32 -10.5 -41.5t-44.5 -9.5h-148q-34 0 -44.5 9.5t-10.5 41.5v516h-500v-516q0 -32 -10.5 -41.5t-44.5 -9.5h-147 q-34 0 -45 9.5t-11 41.5z" />
<glyph unicode="I" horiz-adv-x="552" d="M147 51v1223q0 32 11 41.5t45 9.5h147q34 0 45 -9.5t11 -41.5v-1223q0 -32 -11 -41.5t-45 -9.5h-147q-34 0 -45 9.5t-11 41.5z" />
<glyph unicode="J" horiz-adv-x="700" d="M27 51v111q0 32 9.5 42.5t43.5 10.5h88q88 0 117 51q15 26 19.5 57t4.5 109v842q0 32 11 41.5t45 9.5h147q34 0 44.5 -9.5t10.5 -41.5v-852q0 -120 -19.5 -196t-64.5 -126q-92 -100 -293 -100h-110q-34 0 -43.5 10t-9.5 41z" />
<glyph unicode="K" horiz-adv-x="1142" d="M139 51v1223q0 32 11 41.5t45 9.5h147q34 0 44.5 -9.5t10.5 -41.5v-488h54q21 0 32 7t23 24l311 467q16 24 32 32.5t50 8.5h164q37 0 48 -15q4 -5 4 -12q0 -13 -13 -32l-379 -537q-21 -31 -21 -39q0 -10 21 -41l383 -598q9 -15 9 -26q0 -25 -50 -25h-166q-36 0 -52 7.5 t-30 31.5l-303 506q-18 30 -55 30h-62v-524q0 -32 -10.5 -41.5t-44.5 -9.5h-147q-34 0 -45 9.5t-11 41.5z" />
<glyph unicode="L" horiz-adv-x="892" d="M139 197v1077q0 32 11 41.5t45 9.5h147q34 0 44.5 -9.5t10.5 -41.5v-1024q0 -39 39 -39h344q35 0 45.5 -9.5t10.5 -39.5v-113q0 -29 -11 -39t-45 -10h-434q-113 0 -162 49q-45 45 -45 148z" />
<glyph unicode="M" horiz-adv-x="1607" d="M113 47q2 72 8 296.5t9.5 335t11 281t16.5 300.5q3 45 21.5 55t80.5 10h137q65 0 85.5 -9t33.5 -50q166 -511 283 -838h10q156 418 287 836q13 42 33 51.5t83 9.5h138q60 0 78.5 -11.5t21.5 -56.5q9 -130 16.5 -297t11.5 -286t9 -327.5t8 -299.5v-6q1 -28 -9 -34 q-10 -7 -50 -7h-138q-38 0 -48.5 7t-10.5 40q-1 68 -1 178q0 55 0.5 121t0.5 128q0 122 -1 228q-1 158 -5 283h-10q-24 -69 -271 -774q-3 -9 -7.5 -16.5t-8 -12t-10.5 -8l-10 -5t-13.5 -2.5t-14 -1h-17h-17.5h-96q-53 0 -66 7q-18 10 -30 38q-118 288 -279 774h-10 q-3 -163 -3 -512.5t-1 -425.5q0 -33 -10.5 -40t-49.5 -7h-137q-40 0 -50 7q-10 6 -9 34v6z" />
<glyph unicode="N" horiz-adv-x="1314" d="M139 51v1223q0 32 11 41.5t45 9.5h122q40 0 61 -10t40 -39l510 -844h8v842q0 32 10.5 41.5t44.5 9.5h129q34 0 45 -9.5t11 -41.5v-1223q0 -32 -11 -41.5t-45 -9.5h-123q-40 0 -60.5 10t-39.5 39l-510 825h-8v-823q0 -32 -10.5 -41.5t-44.5 -9.5h-129q-34 0 -45 9.5 t-11 41.5z" />
<glyph unicode="O" horiz-adv-x="1265" d="M98 621v84q0 344 148 505q65 68 156.5 100.5t230.5 32.5q253 0 383 -133q151 -154 151 -505v-84q0 -352 -151 -506q-130 -133 -383 -133q-139 0 -230.5 32.5t-156.5 100.5q-148 161 -148 506zM362 641q0 -126 12.5 -213t55.5 -149q57 -84 203 -84t203 84q41 62 54 149.5 t13 212.5v43q0 125 -13 213t-54 150q-57 83 -203 83t-203 -83q-43 -62 -55.5 -149t-12.5 -214v-43z" />
<glyph unicode="P" horiz-adv-x="1126" d="M139 51v1194q0 45 15.5 63t56.5 23q96 12 313 12q280 0 398 -94q120 -94 120 -317v-37q0 -223 -133 -328q-70 -55 -165 -78.5t-228 -23.5h-119v-414q0 -32 -10.5 -41.5t-44.5 -9.5h-147q-34 0 -45 9.5t-11 41.5zM397 680h127q140 0 197 50.5t57 174.5v27q0 114 -53 158 q-31 25 -73.5 35t-121.5 10q-71 0 -110 -5q-23 -3 -23 -28v-422z" />
<glyph unicode="Q" horiz-adv-x="1265" d="M98 621v84q0 344 148 505q65 68 156.5 100.5t230.5 32.5q253 0 383 -133q151 -154 151 -505v-84q0 -352 -151 -506q-91 -94 -223 -115q49 -60 121 -118t141 -95q31 -17 33 -32t-23 -34l-107 -79q-21 -17 -38.5 -17t-40.5 15q-90 59 -177 152t-149 194q-198 14 -307 129 q-148 161 -148 506zM362 641q0 -126 12.5 -213t55.5 -149q57 -84 203 -84t203 84q41 62 54 149.5t13 212.5v43q0 125 -13 213t-54 150q-57 83 -203 83t-203 -83q-43 -62 -55.5 -149t-12.5 -214v-43z" />
<glyph unicode="R" horiz-adv-x="1140" d="M139 51v1190q0 45 15 62.5t57 23.5q122 16 297 16q154 0 254 -22t166 -74q104 -82 104 -289v-34q0 -293 -254 -379l303 -502q7 -11 7 -19q0 -6 -6 -12q-12 -12 -48 -12h-149q-35 0 -53.5 10.5t-32.5 34.5l-256 457q-10 20 -41 20h-105v-471q0 -32 -10.5 -41.5t-44.5 -9.5 h-147q-34 0 -45 9.5t-11 41.5zM397 733h90q171 0 224 39q57 41 57 156v24q0 102 -41 140q-46 43 -203 43q-68 0 -102 -5q-14 -2 -19.5 -7.5t-5.5 -20.5v-369z" />
<glyph unicode="S" horiz-adv-x="1044" d="M80 956v27q0 193 119 283q106 77 338 77q182 0 329 -47q26 -8 33.5 -19.5t1.5 -39.5l-31 -129q-6 -30 -35 -30q-12 0 -28 5q-146 47 -264 47q-117 0 -164 -30q-47 -32 -47 -123v-16q0 -72 33 -105q36 -36 137 -55l149 -31q183 -39 252 -125q62 -79 62 -235v-31 q0 -202 -111 -301q-107 -96 -375 -96q-79 0 -178.5 17.5t-173.5 41.5q-30 9 -39.5 22.5t-3.5 42.5l22 119q6 38 35 38q10 0 23 -5q66 -25 155.5 -44t153.5 -19q146 0 199 45q24 19 32.5 50t8.5 81v16q0 78 -25 109q-31 38 -139 63l-141 31q-99 22 -155 48t-95 69 q-78 84 -78 249z" />
<glyph unicode="T" horiz-adv-x="987" d="M27 1163v113q0 29 10 39t41 10h831q31 0 41.5 -10t10.5 -39v-113q0 -29 -9 -39t-43 -10h-286v-1063q0 -32 -11 -41.5t-45 -9.5h-147q-34 0 -44.5 9.5t-10.5 41.5v1063h-287q-34 0 -42.5 9.5t-8.5 39.5z" />
<glyph unicode="U" horiz-adv-x="1257" d="M123 449v825q0 32 10.5 41.5t44.5 9.5h148q34 0 44.5 -9.5t10.5 -41.5v-813q0 -144 55 -199q61 -67 193 -67q130 0 194 67q54 60 54 199v813q0 32 10.5 41.5t44.5 9.5h147q34 0 45 -9.5t11 -41.5v-825q0 -125 -29.5 -209t-93.5 -144q-117 -114 -383 -114q-264 0 -381 114 q-125 116 -125 353z" />
<glyph unicode="V" horiz-adv-x="1128" d="M29 1278q-2 9 -2 16q-1 14 7 20q12 10 46 11h141q34 0 47.5 -8t20.5 -39q130 -584 268 -999h14q141 424 269 999q7 31 20 39t47 8h142q33 -1 45 -11q8 -7 8 -20q0 -7 -2 -16q-137 -578 -359 -1212q-12 -37 -34 -51.5t-70 -14.5h-145q-48 0 -70.5 15t-34.5 51 q-219 626 -358 1212z" />
<glyph unicode="W" horiz-adv-x="1669" d="M27 1278q-2 8 -2 15q0 15 8 21q11 10 45 11h141q35 0 48.5 -8t19.5 -39q128 -730 184 -1010h10q34 152 113 518.5t88 409.5q7 33 25 44t59 11h137q41 0 59 -11t25 -44q9 -43 88 -409.5t113 -518.5h10q56 280 184 1010q6 31 19.5 39t48.5 8h141q34 -1 45 -11q8 -7 8 -21 q0 -7 -2 -15q-165 -839 -258 -1221q-9 -34 -31 -45.5t-73 -11.5h-145q-51 0 -73.5 11.5t-31.5 45.5q-96 363 -190 850h-11q-94 -487 -190 -850q-9 -34 -31 -45.5t-73 -11.5h-146q-51 0 -73 11.5t-31 45.5q-93 382 -258 1221z" />
<glyph unicode="X" horiz-adv-x="1177" d="M33 51l297 563q20 42 20 64q0 24 -18 61l-275 539q-12 25 -2.5 36t43.5 11h154q35 0 51 -7t27 -32l202 -438q19 -40 28 -53t20 -13h18q10 0 16.5 10t21.5 41q2 3 2.5 5t2 5l2.5 5l207 438q11 25 27 32t51 7h153q47 0 47 -25q0 -9 -6 -22l-274 -539q-19 -40 -19 -61 q0 -20 21 -64l295 -563q7 -14 7 -25q0 -26 -48 -26h-156q-33 0 -49.5 8.5t-28.5 34.5l-223 463q-27 56 -37 62q-5 3 -10 3h-18q-11 0 -19 -12t-28 -53l-228 -463q-12 -26 -28.5 -34.5t-49.5 -8.5h-155q-48 0 -48 26q0 11 7 25z" />
<glyph unicode="Y" horiz-adv-x="1021" d="M29 1282q-3 9 -3 17q0 11 8 17q11 9 46 9h141q26 0 36 -1.5t18.5 -11t13.5 -30.5q33 -139 94 -320.5t121 -312.5h14q58 128 119 309t96 324q7 30 19.5 36.5t48.5 6.5h141q35 0 46 -9q8 -6 8 -17q0 -8 -3 -17q-151 -508 -354 -854v-377q0 -32 -10.5 -41.5t-44.5 -9.5h-148 q-34 0 -44.5 9.5t-10.5 41.5v377q-206 364 -352 854z" />
<glyph unicode="Z" horiz-adv-x="1046" d="M66 61v66q0 5 1 9.5t1.5 8.5t3 9.5t4 8.5t5.5 10t5.5 9.5t6.5 11t7 11.5l557 909h-493q-34 0 -44.5 10t-10.5 39v113q0 30 10 39.5t45 9.5h749q33 0 47.5 -11t14.5 -40v-62q0 -22 -7 -39t-28 -53l-565 -909h516q34 0 44.5 -10t10.5 -39v-113q0 -30 -10 -39.5t-45 -9.5 h-756q-38 0 -53.5 12.5t-15.5 48.5z" />
<glyph unicode="[" horiz-adv-x="655" d="M137 -121v1432q0 29 11 39t42 10h357q31 0 42 -10t11 -39v-113q0 -28 -11 -38.5t-42 -10.5h-172v-1108h172q31 0 42 -10t11 -39v-113q0 -28 -11 -38.5t-42 -10.5h-357q-31 0 -42 10t-11 39z" />
<glyph unicode="\" horiz-adv-x="851" d="M82 1343q-12 38 1.5 50t70.5 12h84q46 0 64 -11t30 -48l436 -1332q12 -37 -1.5 -49t-70.5 -12h-84q-46 0 -64 11t-30 48z" />
<glyph unicode="]" horiz-adv-x="655" d="M55 -8q0 29 11.5 39t42.5 10h172v1108h-172q-31 0 -42.5 10.5t-11.5 38.5v113q0 29 11.5 39t42.5 10h356q31 0 42 -10t11 -39v-1432q0 -29 -11 -39t-42 -10h-356q-31 0 -42.5 10.5t-11.5 38.5v113z" />
<glyph unicode="^" d="M75.5 683.5q-4.5 16.5 20.5 47.5l322 436q21 28 38 35.5t52 7.5h88q35 0 52 -7.5t38 -35.5l322 -436q25 -31 20.5 -47.5t-53.5 -44.5l-70 -41q-40 -23 -60 -19t-48 39l-244 304l-246 -304q-28 -35 -48 -39t-60 19l-70 41q-49 28 -53.5 44.5z" />
<glyph unicode="_" horiz-adv-x="1103" d="M66 -43q0 36 18.5 53t69.5 17h796q51 0 69.5 -17t18.5 -53v-47q0 -38 -18 -54t-70 -16h-796q-52 0 -70 16t-18 54v47z" />
<glyph unicode="`" horiz-adv-x="757" d="M131 1321q-3 14 14 39l72 102q14 21 27.5 23.5t36.5 -12.5l327 -228q29 -21 2 -63l-43 -60q-26 -41 -73 -14l-332 182q-28 17 -31 31z" />
<glyph unicode="a" horiz-adv-x="1003" d="M74 276v48q0 166 86 237q90 76 299 76h73q45 0 115 -4v55q0 77 -35 105t-141 28q-124 0 -252 -39q-9 -3 -17 -3q-27 0 -34 36l-18 96q-7 26 -1 40.5t31 21.5q149 49 309 49q108 0 175 -15t120 -51q57 -39 82 -101t25 -169v-647q0 -39 -43 -39h-94q-23 0 -33.5 8.5 t-15.5 28.5l-13 49h-4q-30 -53 -83 -78.5t-142 -25.5h-76q-80 0 -132 15t-93 50q-88 76 -88 229zM319 293q0 -64 31 -92q29 -25 90 -25h74q70 0 101.5 33t31.5 104v125q-70 4 -119 4h-71q-80 0 -107 -24q-31 -24 -31 -101v-24z" />
<glyph unicode="b" horiz-adv-x="1075" d="M123 338v997q0 31 11.5 41t45.5 10h129q34 0 46 -10.5t12 -40.5v-389h4q88 76 245 76q194 0 283 -104q94 -105 94 -377v-86q0 -263 -108 -371q-56 -56 -136 -79t-202 -23q-105 0 -174.5 12.5t-122.5 46.5q-64 43 -95.5 109.5t-31.5 187.5zM367 373q0 -103 28 -144 q42 -51 154 -51q110 0 153 55q24 30 33.5 80.5t9.5 155.5v63q0 101 -7 151.5t-31 84.5q-39 55 -152 55q-100 0 -143 -37q-45 -38 -45 -137v-276z" />
<glyph unicode="c" horiz-adv-x="911" d="M82 477v62q0 141 28.5 236.5t94.5 152.5q111 94 307 94q84 0 169 -23.5t146 -60.5q28 -17 28 -43q0 -13 -7 -29l-51 -102q-8 -16 -23.5 -20.5t-36.5 6.5q-105 67 -215 67q-88 0 -137 -43q-21 -18 -32.5 -40.5t-16.5 -61.5t-5.5 -63t-0.5 -87v-33q0 -109 9.5 -163 t37.5 -88q51 -58 158 -58q111 0 206 43q18 8 31 8q25 0 33 -30l26 -95q7 -27 -1 -40.5t-42 -30.5q-106 -53 -296 -53q-89 0 -168.5 24.5t-126.5 67.5q-68 61 -91.5 158t-23.5 245z" />
<glyph unicode="d" horiz-adv-x="1073" d="M82 457v84q0 139 28 227.5t89 149.5q104 104 309 104q117 0 194 -51h5v364q0 31 11.5 41t45.5 10h129q34 0 45.5 -10t11.5 -41v-973q0 -110 -21 -175t-71 -109q-111 -96 -338 -96q-217 0 -317 86q-121 107 -121 389zM330 471q0 -99 11 -153t38 -87q44 -53 141 -53 q106 0 148 45q39 42 39 152v268q0 101 -41 139q-46 43 -138 43q-98 0 -147 -59q-31 -36 -41 -87.5t-10 -143.5v-64z" />
<glyph unicode="e" horiz-adv-x="972" d="M78 475v55q0 251 96.5 371.5t325.5 120.5q185 0 288 -92q54 -48 79.5 -126.5t25.5 -219.5v-140q0 -33 -11.5 -46t-43.5 -13h-512q3 -121 51 -164q44 -41 180 -41q52 0 115.5 12t105.5 31q11 5 21 5q27 0 37 -38l26 -98q6 -24 -1 -35.5t-36 -21.5q-138 -53 -297 -53 q-243 0 -344 104q-58 60 -82 151.5t-24 237.5zM322 578h301q15 0 20.5 6.5t5.5 21.5q0 138 -39 182q-36 39 -118 39q-79 0 -117 -41q-53 -56 -53 -208z" />
<glyph unicode="f" horiz-adv-x="694" d="M29 844v86q0 24 7.5 31t33.5 12l114 20v80q0 106 19.5 162.5t66.5 97.5q81 72 269 72q101 0 182 -23q23 -6 29 -16q4 -6 4 -15q0 -8 -2 -18l-19 -112q-3 -22 -13.5 -28.5t-33.5 -0.5q-54 14 -115 14q-72 0 -106 -22q-37 -25 -37 -125v-55h190q28 0 38 -10t10 -36v-118 q0 -24 -11 -32.5t-41 -8.5h-186v-748q0 -31 -11.5 -41t-45.5 -10h-129q-34 0 -46 10.5t-12 40.5v748h-104q-29 0 -40 9.5t-11 35.5z" />
<glyph unicode="g" horiz-adv-x="1036" d="M82 539v63q0 128 30.5 207.5t98.5 132.5q104 80 301 80h27q35 96 104 140t184 44h72q23 0 32 -9.5t9 -35.5v-84q0 -27 -8.5 -35t-32.5 -8h-84q-48 0 -67 -6t-31 -24q128 -38 176.5 -136t48.5 -266v-63q0 -219 -123 -318q166 -106 166 -270v-19q0 -79 -23.5 -130.5 t-70.5 -92.5q-109 -92 -359 -92q-186 0 -391 76q-38 14 -38 46q0 9 3 19l29 92q10 34 36 34q10 0 22 -5q169 -72 325 -72q131 0 184 48q37 34 37 104v14q0 104 -94 160q-62 -12 -133 -12q-106 0 -177 20t-128 64q-125 97 -125 334zM330 555q0 -77 9.5 -122t35.5 -77 q34 -43 137 -43q54 0 86 9.5t53 33.5q43 53 43 199v37q0 76 -8 123.5t-35 72.5q-44 41 -139 41q-102 0 -137 -41q-27 -30 -36 -77t-9 -119v-37z" />
<glyph unicode="h" horiz-adv-x="1075" d="M123 51v1284q0 31 11.5 41t45.5 10h129q34 0 46 -10.5t12 -40.5v-387q95 74 251 74q202 0 291 -143q54 -88 54 -269v-559q0 -30 -12 -40.5t-46 -10.5h-129q-34 0 -45.5 10t-11.5 41v572q0 63 -9.5 99t-33.5 60q-43 43 -131 43q-95 0 -135 -37q-22 -20 -32.5 -51 t-10.5 -90v-596q0 -30 -12 -40.5t-46 -10.5h-129q-34 0 -45.5 10t-11.5 41z" />
<glyph unicode="i" horiz-adv-x="501" d="M102 1251v13q0 70 40 105.5t104 35.5h10q66 0 104.5 -35t38.5 -106v-13q0 -68 -39.5 -105.5t-103.5 -37.5h-10q-76 0 -110 36t-34 107zM129 51v901q0 31 11.5 41.5t45.5 10.5h129q34 0 46 -10.5t12 -41.5v-901q0 -30 -12 -40.5t-46 -10.5h-129q-34 0 -45.5 10t-11.5 41z " />
<glyph unicode="j" horiz-adv-x="501" d="M-117 -193q0 39 41 39h31q99 0 135 41q41 46 41 197v868q0 31 11.5 41.5t45.5 10.5h129q34 0 46 -10.5t12 -41.5v-886q0 -229 -86 -328q-87 -100 -271 -100h-90q-26 0 -35.5 8.5t-9.5 29.5v131zM102 1251v13q0 70 41 105.5t105 35.5h10q66 0 104.5 -35t38.5 -106v-13 q0 -68 -39.5 -105.5t-103.5 -37.5h-10q-76 0 -111 36t-35 107z" />
<glyph unicode="k" horiz-adv-x="933" d="M121 51v1284q0 31 11.5 41t45.5 10h129q34 0 46 -10.5t12 -40.5v-700h28q19 0 27 14l215 322q14 21 25 27t42 6h164q30 0 38 -13t-7 -35l-279 -403q-18 -24 0 -51l291 -449q13 -20 13 -32q0 -21 -35 -21h-168q-32 0 -46.5 7.5t-31.5 35.5l-221 369q-10 14 -27 14h-28 v-375q0 -30 -12 -40.5t-46 -10.5h-129q-34 0 -45.5 10t-11.5 41z" />
<glyph unicode="l" horiz-adv-x="583" d="M121 250v1085q0 31 11.5 41t45.5 10h129q34 0 46 -10.5t12 -40.5v-1063q0 -37 13.5 -52t45.5 -15h61q27 0 37 -10.5t10 -38.5v-107q0 -29 -10 -39t-37 -10h-137q-64 0 -102 11t-66 38q-59 59 -59 201z" />
<glyph unicode="m" horiz-adv-x="1650" d="M123 51v905q0 26 11.5 37t37.5 11h76q27 0 38 -7t15 -30l10 -49h6q104 104 271 104q193 0 284 -115q136 115 308 115q176 0 262 -86q96 -92 96 -303v-582q0 -31 -11.5 -41t-45.5 -10h-129q-34 0 -46 10.5t-12 40.5v572q0 113 -39 157q-39 45 -133 45q-104 0 -172 -77 q6 -52 6 -138v-559q0 -31 -11.5 -41t-45.5 -10h-129q-34 0 -45.5 10t-11.5 41v572q0 63 -9.5 99t-33.5 60t-52 33.5t-77 9.5q-91 0 -131 -37q-22 -20 -32.5 -51t-10.5 -90v-596q0 -30 -12 -40.5t-46 -10.5h-129q-34 0 -45.5 10t-11.5 41z" />
<glyph unicode="n" horiz-adv-x="1075" d="M123 51v905q0 26 11.5 37t37.5 11h76q27 0 38 -7t15 -30l10 -49h6q100 104 279 104q111 0 186.5 -32.5t124.5 -104.5q56 -87 56 -275v-559q0 -30 -12 -40.5t-46 -10.5h-129q-34 0 -45.5 10t-11.5 41v572q0 63 -9.5 99t-33.5 60q-43 43 -135 43q-91 0 -131 -37 q-22 -20 -32.5 -51t-10.5 -90v-596q0 -30 -12 -40.5t-46 -10.5h-129q-34 0 -45.5 10t-11.5 41z" />
<glyph unicode="o" horiz-adv-x="1024" d="M82 471v61q0 251 104 369q105 121 326 121t326 -121q104 -118 104 -369v-61q0 -251 -104 -369q-107 -120 -326 -120t-326 120q-104 118 -104 369zM330 481q0 -192 45 -250q23 -28 53.5 -41.5t83.5 -13.5t83.5 13.5t53.5 41.5q45 58 45 250v43q0 190 -45 248 q-23 29 -53.5 42t-83.5 13t-83.5 -13t-53.5 -42q-45 -58 -45 -248v-43z" />
<glyph unicode="p" horiz-adv-x="1077" d="M123 -311v1267q0 26 11.5 37t37.5 11h76q27 0 38 -6.5t15 -26.5l10 -51h4q99 102 285 102q204 0 301 -111q51 -59 72.5 -141t21.5 -221v-78q0 -264 -104 -379q-98 -110 -318 -110q-123 0 -206 55v-348q0 -30 -12 -40.5t-46 -10.5h-129q-34 0 -45.5 10t-11.5 41zM367 358 q0 -97 43 -137q44 -41 141 -41q98 0 147 58q30 36 40 87.5t10 145.5v59q0 99 -11 152.5t-39 87.5q-44 53 -147 53t-145 -45q-39 -42 -39 -151v-269z" />
<glyph unicode="q" horiz-adv-x="1075" d="M82 469v70q0 255 97.5 369t309.5 114q182 0 269 -100h4l12 49q4 20 15 26.5t38 6.5h76q26 0 37.5 -11t11.5 -37v-1267q0 -31 -11.5 -41t-45.5 -10h-129q-34 0 -45.5 10t-11.5 41v364q-27 -30 -87 -50.5t-137 -20.5q-214 0 -308.5 114t-94.5 373zM330 477q0 -107 9 -161 t34 -85q41 -51 143 -51q108 0 152 53q41 47 41 152v238q0 109 -39 153q-44 47 -146 47q-56 0 -88 -11t-57 -36q-29 -29 -39 -85t-10 -167v-47z" />
<glyph unicode="r" horiz-adv-x="706" d="M123 51v905q0 26 11.5 37t37.5 11h72q27 0 38.5 -7.5t14.5 -29.5l14 -97h4q49 71 110.5 102.5t162.5 31.5h28q33 0 45.5 -10t12.5 -40v-108q0 -27 -12.5 -37t-45.5 -10h-36q-122 0 -166 -51q-23 -27 -35 -64.5t-12 -110.5v-522q0 -30 -12 -40.5t-46 -10.5h-129 q-34 0 -45.5 10t-11.5 41z" />
<glyph unicode="s" horiz-adv-x="886" d="M76 64q-3 6 -4 15q0 10 4 23l22 101q9 35 35 35q10 0 23 -5q135 -53 245 -53q96 0 134 25q34 22 34 80v14q0 48 -26 69.5t-92 37.5l-123 28q-71 17 -110.5 37.5t-70.5 54.5q-61 67 -61 189v18q0 150 90 221q86 68 277 68q73 0 150 -12.5t124 -28.5q22 -7 27 -16.5 t0 -32.5l-25 -115q-6 -29 -32 -29q-9 0 -19 3q-94 32 -199 32q-95 0 -127 -22q-28 -20 -28 -66v-14q0 -42 25 -61t79 -31l127 -29q148 -35 207 -111q45 -61 45 -170v-24q0 -142 -82 -221q-100 -92 -303 -92q-173 0 -313 59q-27 11 -33 23z" />
<glyph unicode="t" horiz-adv-x="741" d="M18 838v90q0 24 6.5 32t26.5 11l131 22v215q0 31 12 41.5t46 10.5h129q34 0 45.5 -10.5t11.5 -41.5v-204h203q26 0 34.5 -11.5t8.5 -42.5v-100q0 -28 -9 -39.5t-34 -11.5h-203v-447q0 -55 5 -79.5t20 -41.5q23 -26 96 -26h100q31 0 40 -10.5t9 -42.5v-101q0 -31 -8.5 -41 t-40.5 -10h-147q-89 0 -145.5 15.5t-94.5 50.5q-78 72 -78 245v488h-123q-24 0 -32.5 8t-8.5 31z" />
<glyph unicode="u" horiz-adv-x="1044" d="M113 315v637q0 31 11.5 41.5t45.5 10.5h129q34 0 45.5 -10.5t11.5 -41.5v-612q0 -94 45 -127q39 -27 123 -27q87 0 123 27q41 33 41 127v612q0 31 11.5 41.5t45.5 10.5h129q34 0 46 -10.5t12 -41.5v-637q0 -102 -28 -165.5t-89 -102.5q-101 -65 -291 -65q-199 0 -295 65 q-116 78 -116 268z" />
<glyph unicode="v" horiz-adv-x="950" d="M23 956q-2 8 -2 14q0 34 49 34h135q26 0 38.5 -9.5t18.5 -33.5q108 -413 209 -705h10q110 311 207 705q6 24 18.5 33.5t38.5 9.5h136q49 0 49 -34q0 -6 -2 -14q-114 -447 -293 -903q-12 -30 -31 -41.5t-55 -11.5h-146q-36 0 -55 11.5t-31 41.5q-76 190 -157.5 438 t-136.5 465z" />
<glyph unicode="w" horiz-adv-x="1394" d="M23 956q-1 7 -1 12q0 16 8 25q12 11 40 11h137q51 0 57 -43q73 -440 137 -705h7q53 215 139 639q7 37 23.5 48t62.5 11h129q46 0 62.5 -11t23.5 -48q86 -424 139 -639h6q72 311 137 705q6 43 58 43h137q27 0 39 -11q9 -8 9 -25q0 -6 -1 -12q-44 -223 -108.5 -490.5 t-108.5 -412.5q-9 -30 -29 -41.5t-57 -11.5h-145q-37 0 -57 11.5t-29 41.5q-77 270 -136 619h-10q-58 -340 -135 -619q-9 -30 -29 -41.5t-57 -11.5h-145q-36 0 -55 11.5t-31 41.5q-45 154 -110 420.5t-107 482.5z" />
<glyph unicode="x" horiz-adv-x="970" d="M29 45l239 451q11 20 0 39l-225 423q-7 13 -7 23q0 23 42 23h160q31 0 42 -6.5t23 -32.5l141 -306q18 -38 31 -38h25q14 0 32 38l144 306q12 26 23 32.5t42 6.5h160q42 0 42 -23q0 -9 -7 -23l-234 -423q-11 -19 0 -39l240 -451q7 -13 7 -22q0 -23 -42 -23h-164 q-31 0 -42 6.5t-23 32.5l-148 330q-19 43 -30 43h-25q-12 0 -31 -43l-151 -330q-11 -25 -22.5 -32t-43.5 -7h-164q-41 0 -41 23q0 9 7 22z" />
<glyph unicode="y" horiz-adv-x="937" d="M23 956q-2 8 -2 14q0 34 49 34h139q49 0 57 -43q91 -400 203 -750h8q130 374 197 750q8 43 57 43h137q49 0 49 -34q0 -6 -2 -14q-144 -668 -436 -1302q-16 -37 -41 -37q-24 0 -47 10l-100 41q-23 10 -28.5 23t5.5 33q99 206 125 272q-44 13 -74 44t-51 93 q-125 354 -245 823z" />
<glyph unicode="z" horiz-adv-x="845" d="M41 55v47q0 27 8.5 49t34.5 60l385 588h-363q-32 0 -40.5 10t-8.5 39v104q0 31 8.5 41.5t40.5 10.5h635q27 0 36 -8.5t9 -34.5v-54q0 -20 -7 -38.5t-14 -30.5t-30 -47l-381 -586h420q28 0 37.5 -11t9.5 -40v-105q0 -27 -10 -38t-37 -11h-663q-40 0 -55 11.5t-15 43.5z " />
<glyph unicode="{" horiz-adv-x="729" d="M90 559v64q0 36 9.5 48t45.5 21q56 15 83.5 42.5t27.5 82.5v283q0 134 61.5 207t178.5 73h112q31 0 42.5 -10t11.5 -39v-112q0 -28 -11.5 -39t-42.5 -11h-69q-29 0 -37 -17t-8 -81v-240q0 -167 -123 -239v-6q64 -39 93 -94.5t30 -149.5v-229q0 -65 8 -83t33 -18h73 q31 0 42.5 -10t11.5 -39v-113q0 -28 -11.5 -38.5t-42.5 -10.5h-112q-117 0 -178.5 74.5t-61.5 208.5v268q0 61 -28 90t-89 50q-31 11 -40 23t-9 44z" />
<glyph unicode="|" horiz-adv-x="501" d="M131 23v1288q0 39 18 51t64 12h76q46 0 64 -12t18 -51v-1288q0 -39 -18 -51.5t-64 -12.5h-76q-46 0 -64 12.5t-18 51.5z" />
<glyph unicode="}" horiz-adv-x="729" d="M78 -37q0 29 11 39t42 10h74q25 0 33 18t8 83v229q1 94 30 149.5t93 94.5v6q-123 72 -123 239v240q0 64 -8 81t-37 17h-70q-30 0 -41.5 11t-11.5 39v112q0 29 11 39t42 10h113q117 0 178 -73t61 -207v-283q0 -55 27.5 -82.5t83.5 -42.5q36 -9 45.5 -21t9.5 -48v-64 q0 -32 -9 -44t-40 -23q-61 -21 -89 -50t-28 -90v-268q0 -134 -61 -208.5t-178 -74.5h-113q-31 0 -42 10.5t-11 38.5v113z" />
<glyph unicode="~" d="M11.5 549.5q-0.5 21.5 17.5 54.5q74 142 154.5 197t176.5 55q38 0 75.5 -12t57 -22.5t56.5 -33.5l119 -73q23 -15 34 -21t27.5 -11t34.5 -5q27 0 60 32t63 87q18 32 36 38t52 -12l78 -43q36 -22 39.5 -40t-13.5 -50q-114 -256 -315 -256q-96 0 -186 58l-109 67 q-65 43 -102 43q-71 0 -142 -121q-19 -31 -35.5 -35t-50.5 15l-104 55q-23 12 -23.5 33.5z" />
<glyph unicode="&#xa1;" horiz-adv-x="444" d="M76 874v11q0 69 33 103t106 34h8q63 0 100 -35.5t37 -101.5v-11q0 -68 -36.5 -101.5t-100.5 -33.5h-8q-61 0 -100 34t-39 101zM84 -276l31 864q1 41 19 53t65 12h41q47 0 68 -13t22 -54l30 -862q2 -45 -14 -62.5t-72 -17.5h-102q-54 0 -72 18t-16 62z" />
<glyph unicode="&#xa2;" d="M168 477v62q0 141 28.5 236.5t94.5 152.5q95 83 266 92v147q0 23 8.5 30t36.5 7h57q28 0 37 -7t9 -30v-155q120 -21 215 -76q43 -24 20 -72l-51 -102q-8 -16 -23.5 -20.5t-36.5 6.5q-62 39 -124 57v-617q64 9 122 35q52 24 64 -22l27 -95q8 -28 -0.5 -42t-43.5 -29 q-76 -32 -169 -43v-144q0 -23 -9 -29.5t-37 -6.5h-57q-28 0 -36.5 6.5t-8.5 29.5v134q-182 7 -274 92q-68 61 -91.5 158t-23.5 245zM416 489q0 -109 9.5 -163t37.5 -88q33 -41 94 -52v627q-46 -8 -86 -39q-21 -18 -32.5 -40.5t-16.5 -61.5t-5.5 -63t-0.5 -87v-33z" />
<glyph unicode="&#xa3;" d="M94 53v66q0 29 8 41.5t39 32.5q77 52 110.5 114t33.5 158v100h-99q-36 0 -44.5 9t-8.5 42v64q0 37 9.5 49.5t37.5 15.5l105 17v192q0 202 92 295.5t295 93.5q159 0 297 -51q26 -9 32.5 -23.5t-2.5 -45.5l-26 -95q-7 -27 -19.5 -34t-35.5 2q-114 43 -201 43 q-102 0 -138 -42.5t-36 -150.5v-176h313q39 0 47 -12.5t8 -61.5v-59q0 -49 -7.5 -60.5t-47.5 -11.5h-315v-80q0 -160 -109 -280h535q35 0 45 -13t10 -57v-76q0 -38 -9.5 -48.5t-43.5 -10.5h-819q-34 0 -45 12t-11 41z" />
<glyph unicode="&#xa4;" horiz-adv-x="1116" d="M52.5 243.5q-0.5 13.5 19.5 35.5l127 124q-45 85 -45 193q0 106 47 192l-129 127q-20 22 -19.5 35.5t19.5 32.5l98 100q29 34 66 0l133 -129q85 45 188 45t191 -45l133 129q21 18 35.5 18t29.5 -18l98 -100q19 -19 19.5 -32.5t-19.5 -35.5l-131 -129q48 -85 48 -190 q0 -106 -46 -193l129 -124q20 -22 19.5 -35.5t-19.5 -32.5l-98 -100q-15 -18 -29.5 -18t-35.5 18l-131 127q-83 -45 -193 -45q-105 0 -190 45l-131 -127q-37 -34 -66 0l-98 100q-19 19 -19.5 32.5zM381 596q0 -78 50.5 -127t125.5 -49t125.5 49t50.5 127t-50.5 127 t-125.5 49t-125.5 -49t-50.5 -127z" />
<glyph unicode="&#xa5;" d="M70 1274q-15 51 51 51h141q33 0 47 -10t21 -41q30 -134 91.5 -320t123.5 -336h14q61 146 123 333.5t92 322.5q7 31 21 41t47 10h141q66 0 51 -51q-105 -355 -254 -660h115q39 0 47 -13.5t8 -61.5v-39q0 -46 -8 -59t-47 -13h-213l-2 -4v-90h215q39 0 47 -14t8 -62v-35 q0 -46 -8 -58.5t-47 -12.5h-215v-93q0 -35 -12 -47t-47 -12h-140q-35 0 -47 12t-12 47v93h-213q-39 0 -47 12.5t-8 58.5v35q0 48 8 62t47 14h213v94h-213q-39 0 -47 13t-8 59v39q0 48 8 61.5t47 13.5h115q-151 309 -254 660z" />
<glyph unicode="&#xa6;" horiz-adv-x="501" d="M131 39v424q0 80 90 80h60q90 0 90 -80v-424q0 -80 -90 -80h-60q-90 0 -90 80zM131 901v424q0 80 90 80h60q90 0 90 -80v-424q0 -80 -90 -80h-60q-90 0 -90 80z" />
<glyph unicode="&#xa7;" horiz-adv-x="901" d="M92 631v16q0 110 92 176q-45 33 -66.5 82t-21.5 125v17q0 74 34.5 130.5t92.5 84.5q101 49 238 49q136 0 258 -37q21 -7 26 -16.5t0 -32.5l-24 -115q-8 -40 -51 -27q-112 33 -197 33q-73 0 -104 -14q-33 -15 -33 -62v-10q0 -31 21 -49t71 -27l121 -22q140 -26 200 -75 t60 -155v-16q0 -51 -27 -103.5t-75 -88.5q100 -56 100 -211v-17q0 -133 -94 -209q-100 -75 -293 -75q-69 0 -150.5 16.5t-136.5 38.5q-27 10 -33.5 22.5t0.5 38.5l23 101q11 45 57 30q134 -49 240 -49q94 0 129 27q20 17 20 57v12q0 63 -106 84l-105 23q-138 29 -202 84 t-64 164zM334 664q0 -35 20 -55t66 -29l104 -23q19 12 31 37.5t12 54.5v13q0 30 -21 47.5t-73 27.5l-102 21q-37 -29 -37 -84v-10z" />
<glyph unicode="&#xa8;" horiz-adv-x="757" d="M92 1270v49q0 46 29.5 73t79.5 27h20q51 0 82 -27t31 -73v-49q0 -50 -30 -75.5t-83 -25.5h-20q-51 0 -80 25.5t-29 75.5zM428 1270v49q0 46 29.5 73t79.5 27h18q52 0 81.5 -27t29.5 -73v-49q0 -101 -111 -101h-18q-51 0 -80 25.5t-29 75.5z" />
<glyph unicode="&#xa9;" horiz-adv-x="1691" d="M82 713q0 159 53 295t150 235t241 155t318 56t318 -56t241 -155t150 -235t53 -295q0 -212 -90.5 -379.5t-265.5 -265t-406 -97.5t-406 97.5t-265.5 265t-90.5 379.5zM330 709q0 -111 32.5 -205.5t95 -166.5t161.5 -112.5t225 -40.5t225 40.5t161.5 112.5t95 166.5 t32.5 205.5q0 115 -32.5 211t-95 168t-161.5 112.5t-225 40.5t-225 -40.5t-161.5 -112.5t-95 -168t-32.5 -211zM547 629v157q0 164 72.5 237t230.5 73q128 0 221 -49q20 -10 24 -24t-5 -40l-25 -68q-15 -45 -64 -20q-60 31 -114 31q-64 0 -88.5 -30.5t-24.5 -107.5v-163 q0 -25 3.5 -43.5t14.5 -38t35.5 -29.5t61.5 -10q55 0 125 24q23 8 35 3.5t18 -27.5l25 -74q7 -26 -2 -38.5t-43 -24.5q-96 -35 -187 -35q-313 0 -313 297z" />
<glyph unicode="&#xaa;" horiz-adv-x="659" d="M49 770v25q0 105 53 149q57 49 195 49h47q26 0 72 -4v23q0 34 -21 55q-23 18 -90 18q-76 0 -153 -22q-31 -11 -37 18l-17 86q-5 31 27 41q95 31 209 31q118 0 182 -43q36 -26 53 -64t17 -104v-410q0 -24 -25 -24h-90q-15 0 -20.5 4t-8.5 16l-6 33h-2q-40 -65 -139 -65 h-45q-99 0 -146 41q-55 49 -55 147zM213 780q0 -42 20 -55q17 -14 52 -14h32q99 0 99 92v51q-46 4 -74 4h-45q-47 0 -64 -14q-20 -15 -20 -60v-4z" />
<glyph unicode="&#xab;" horiz-adv-x="1183" d="M41 469v16q0 46 39 80l315 258q35 29 59 31t54 -23l49 -43q32 -32 31.5 -54t-29.5 -48l-225 -209l225 -205q24 -21 29.5 -39t-2.5 -33t-29 -34l-49 -43q-29 -26 -52.5 -24.5t-60.5 30.5l-315 260q-39 34 -39 80zM571 469v16q0 46 39 80l316 258q35 29 58.5 31t53.5 -23 l49 -43q33 -32 32.5 -54t-29.5 -48l-226 -209l226 -205q24 -21 29.5 -39t-3 -33t-29.5 -34l-49 -43q-29 -26 -52 -24.5t-60 30.5l-316 260q-39 34 -39 80z" />
<glyph unicode="&#xac;" d="M66 494v73q0 20 1.5 31.5t8.5 23t22.5 16.5t40.5 5h815q40 0 63 -19.5t23 -56.5v-432q0 -35 -19 -47t-67 -12h-73q-53 0 -68.5 11.5t-15.5 47.5v283h-658q-48 0 -60.5 17t-12.5 59z" />
<glyph unicode="&#xad;" horiz-adv-x="681" d="M68 496v69q0 39 14.5 57.5t62.5 18.5h392q48 0 62.5 -18.5t14.5 -57.5v-73q0 -26 -6.5 -41.5t-20 -21.5t-23 -7.5t-27.5 -1.5h-392q-49 0 -63 17.5t-14 58.5z" />
<glyph unicode="&#xae;" horiz-adv-x="1691" d="M82 713q0 159 53 295t150 235t241 155t318 56t318 -56t241 -155t150 -235t53 -295q0 -212 -90.5 -379.5t-265.5 -265t-406 -97.5t-406 97.5t-265.5 265t-90.5 379.5zM330 709q0 -111 32.5 -205.5t95 -166.5t161.5 -112.5t225 -40.5t225 40.5t161.5 112.5t95 166.5 t32.5 205.5q0 115 -32.5 211t-95 168t-161.5 112.5t-225 40.5t-225 -40.5t-161.5 -112.5t-95 -168t-32.5 -211zM588 401v611q0 63 67 71q53 7 170 7q64 0 117.5 -12t99 -38.5t71.5 -74t26 -113.5v-16q0 -116 -74 -174q-29 -25 -64 -39l148 -224q17 -29 6.5 -42t-51.5 -13 h-107q-26 0 -41 7.5t-28 31.5l-121 213h-10v-195q0 -30 -15 -43.5t-51 -13.5h-78q-36 0 -50.5 13.5t-14.5 43.5zM797 750h34q54 0 74 20q19 19 19 68v14q0 72 -80 72q-33 0 -47 -2v-172z" />
<glyph unicode="&#xaf;" horiz-adv-x="757" d="M109 1235v72q0 49 49 49h442q29 0 39 -12.5t10 -36.5v-76q0 -21 -9 -31.5t-17.5 -12t-22.5 -1.5h-442q-28 0 -38.5 11.5t-10.5 37.5z" />
<glyph unicode="&#xb0;" horiz-adv-x="755" d="M72 1229q0 128 90 218.5t213 90.5q129 0 219 -90t90 -219q0 -123 -90.5 -213t-218.5 -90q-121 0 -212 91t-91 212zM285 1229q0 -40 26.5 -68t63.5 -28q41 0 67.5 28t26.5 68q0 44 -26.5 72t-67.5 28q-37 0 -63.5 -28.5t-26.5 -71.5z" />
<glyph unicode="&#xb1;" d="M66 76v74q0 20 1.5 31t8.5 22.5t22.5 16.5t40.5 5h828q47 0 60 -17.5t13 -57.5v-78q0 -26 -6 -41.5t-19 -21.5t-22 -7.5t-26 -1.5h-828q-48 0 -60.5 17t-12.5 59zM66 766v74q0 20 1.5 31t8.5 22.5t22.5 16.5t40.5 5h293v281q0 43 19 56.5t67 13.5h68q44 0 66 -14t22 -56 v-281h293q47 0 60 -17.5t13 -57.5v-78q0 -26 -6 -41.5t-19 -21.5t-22 -7.5t-26 -1.5h-293v-266q0 -66 -88 -66h-74q-42 0 -61 14.5t-19 51.5v266h-293q-48 0 -60.5 17t-12.5 59z" />
<glyph unicode="&#xb2;" horiz-adv-x="819" d="M137 932v80q0 101 37.5 168t118.5 106l100 49q47 23 64.5 41t17.5 47v7q0 53 -84 53t-158 -27q-22 -8 -32 -0.5t-17 39.5l-16 72q-7 28 -1.5 43t26.5 22q102 37 235 37q123 0 187.5 -58t64.5 -167v-12q0 -85 -36 -138t-128 -98l-100 -49q-43 -22 -56.5 -39t-13.5 -41v-12 h275q30 0 39.5 -9.5t9.5 -41.5v-76q0 -30 -10 -42t-39 -12h-422q-37 0 -49.5 11.5t-12.5 46.5z" />
<glyph unicode="&#xb3;" horiz-adv-x="819" d="M132 921q-6 13 1 37l19 78q6 27 17.5 34t33.5 -1q34 -13 88 -24t88 -11q100 0 100 68v8q0 41 -15.5 57.5t-62.5 16.5h-77q-27 0 -34 12.5t-7 44.5v53q0 34 7 47t34 13h57q53 0 72.5 17.5t19.5 51.5v9q0 51 -86 51q-64 0 -141 -25q-29 -9 -39 -3t-17 38l-18 72 q-8 28 -2.5 40t31.5 21q45 16 111 27.5t118 11.5q120 0 184 -51t64 -152v-16q0 -56 -23 -102t-67 -70v-6q100 -46 100 -152v-16q0 -244 -278 -244q-59 0 -132 13t-116 30q-24 9 -30 22z" />
<glyph unicode="&#xb4;" horiz-adv-x="757" d="M143 1182q-27 42 2 63l328 228q23 15 36.5 12.5t27.5 -23.5l71 -102q18 -25 14.5 -39t-30.5 -31l-332 -182q-47 -28 -74 14z" />
<glyph unicode="&#xb6;" horiz-adv-x="1275" d="M92 989q0 161 121 272t309 111h635q27 0 36 -10t9 -37v-115q0 -24 -9 -33.5t-36 -9.5h-106v-1333q0 -30 -12 -40.5t-46 -10.5h-123q-34 0 -45.5 10t-11.5 41v1333h-127v-1333q0 -31 -11.5 -41t-45.5 -10h-137q-34 0 -46 10.5t-12 40.5v776q-149 19 -245.5 126t-96.5 253z " />
<glyph unicode="&#xb7;" horiz-adv-x="430" d="M74 578v32q0 67 35.5 98t95.5 31h22q129 0 129 -129v-32q0 -65 -34 -98.5t-95 -33.5h-22q-70 0 -100.5 32t-30.5 100z" />
<glyph unicode="&#xb8;" horiz-adv-x="757" d="M152 -420l10 66q3 18 10.5 22.5t26.5 -0.5q62 -20 129 -20q45 0 65.5 12.5t20.5 44.5q0 28 -15 40.5t-53 12.5q-18 0 -72 -8q-29 -5 -45 17l-16 24q-11 19 -8 37l35 158q5 20 26 20h99q14 0 18.5 -4t1.5 -16l-20 -105q30 6 63 6q69 0 117.5 -43.5t48.5 -128.5 q0 -202 -242 -202q-97 0 -174 24q-19 6 -24 14.5t-2 28.5z" />
<glyph unicode="&#xb9;" horiz-adv-x="819" d="M109 1493q3 13 24 27l162 102q30 20 46.5 24.5t53.5 4.5h70q43 0 56.5 -12t13.5 -50v-534h114q34 0 43.5 -11.5t9.5 -44.5v-71q0 -30 -10 -42t-43 -12h-444q-31 0 -43 12.5t-12 43.5v71q0 28 12.5 41t42.5 13h129v377h-8l-101 -62q-40 -24 -61 12l-45 76q-13 22 -10 35z " />
<glyph unicode="&#xba;" horiz-adv-x="663" d="M57 887v49q0 162 64 232.5t211 70.5t210.5 -70.5t63.5 -232.5v-49q0 -161 -63.5 -233t-210.5 -72t-211 72t-64 233zM233 903q0 -95 22 -131.5t77 -36.5q54 0 75 36t21 132v12q0 96 -21 133t-75 37q-55 0 -77 -37t-22 -133v-12z" />
<glyph unicode="&#xbb;" horiz-adv-x="1163" d="M64.5 233q5.5 18 29.5 39l225 205l-225 209q-29 26 -29.5 48t31.5 54l49 43q30 25 54 23t59 -31l315 -258q39 -34 39 -80v-16q0 -46 -39 -80l-315 -260q-37 -29 -60.5 -30.5t-52.5 24.5l-49 43q-21 19 -29 34t-2.5 33zM574.5 233q5.5 18 29.5 39l225 205l-225 209 q-29 26 -29.5 48t31.5 54l49 43q30 25 54 23t59 -31l315 -258q39 -34 39 -80v-16q0 -46 -39 -80l-315 -260q-37 -29 -60.5 -30.5t-52.5 24.5l-49 43q-21 19 -29 34t-2.5 33z" />
<glyph unicode="&#xbc;" horiz-adv-x="1822" d="M62 1167.5q3 12.5 24 26.5l162 102q30 20 46.5 24.5t53.5 4.5h70q43 0 56 -11.5t13 -49.5v-535h115q34 0 43.5 -11.5t9.5 -43.5v-72q0 -30 -10 -41.5t-43 -11.5h-444q-31 0 -43.5 12t-12.5 43v72q0 28 13 40.5t43 12.5h129v377h-8l-101 -62q-39 -23 -61 13l-45 76 q-13 22 -10 34.5zM436.5 -2.5q-9.5 15.5 9.5 47.5l766 1258q14 23 30.5 31.5t49.5 8.5h121q46 0 56.5 -14.5t-9.5 -48.5l-766 -1257q-14 -23 -30.5 -32t-49.5 -9h-133q-35 0 -44.5 15.5zM1083 211v57q0 25 31 72l242 385q19 29 38.5 40t53.5 11h129q33 0 45 -12t12 -45v-391 h60q22 0 29.5 -10.5t7.5 -34.5v-68q0 -47 -37 -47h-60v-129q0 -21 -10.5 -30t-34.5 -9h-110q-45 0 -45 39v129h-301q-29 0 -39.5 8.5t-10.5 34.5zM1272 328h162v252h-7z" />
<glyph unicode="&#xbd;" horiz-adv-x="1822" d="M62 1167.5q3 12.5 24 26.5l162 102q30 20 46.5 24.5t53.5 4.5h70q43 0 56 -11.5t13 -49.5v-535h115q34 0 43.5 -11.5t9.5 -43.5v-72q0 -30 -10 -41.5t-43 -11.5h-444q-31 0 -43.5 12t-12.5 43v72q0 28 13 40.5t43 12.5h129v377h-8l-101 -62q-39 -23 -61 13l-45 76 q-13 22 -10 34.5zM436.5 -2.5q-9.5 15.5 9.5 47.5l766 1258q14 23 30.5 31.5t49.5 8.5h121q46 0 56.5 -14.5t-9.5 -48.5l-766 -1257q-14 -23 -30.5 -32t-49.5 -9h-133q-35 0 -44.5 15.5zM1210 57v80q0 199 156 275l100 49q47 23 64.5 41t17.5 47v6q0 53 -84 53 q-86 0 -157 -26q-22 -8 -32.5 -0.5t-17.5 39.5l-16 71q-7 28 -1.5 43.5t26.5 22.5q102 37 235 37q123 0 187.5 -58.5t64.5 -167.5v-12q0 -85 -36 -137t-128 -98l-100 -50q-43 -22 -56.5 -38.5t-13.5 -40.5v-13h275q30 0 39.5 -9.5t9.5 -41.5v-76q0 -30 -10 -41.5t-39 -11.5 h-422q-37 0 -49.5 11t-12.5 46z" />
<glyph unicode="&#xbe;" horiz-adv-x="1822" d="M113.5 600q-5.5 13 1.5 37l18 78q6 27 17.5 34t33.5 -1q34 -13 88 -24t88 -11q101 0 101 67v8q0 41 -15.5 57.5t-62.5 16.5h-78q-27 0 -34 13t-7 45v53q0 33 7 46t34 13h57q53 0 73 18t20 52v8q0 51 -86 51q-68 0 -142 -24q-29 -9 -38.5 -3.5t-16.5 37.5l-18 72 q-8 28 -3 40.5t31 21.5q44 15 110.5 26.5t119.5 11.5q247 0 247 -202v-17q0 -56 -23 -102t-67 -70v-6q101 -46 101 -151v-17q0 -243 -279 -243q-59 0 -132 13t-116 30q-24 9 -29.5 22zM436.5 -2.5q-9.5 15.5 9.5 47.5l766 1258q14 23 30.5 31.5t49.5 8.5h121 q46 0 56.5 -14.5t-9.5 -48.5l-766 -1257q-14 -23 -30.5 -32t-49.5 -9h-133q-35 0 -44.5 15.5zM1083 211v57q0 25 31 72l242 385q19 29 38.5 40t53.5 11h129q33 0 45 -12t12 -45v-391h60q22 0 29.5 -10.5t7.5 -34.5v-68q0 -47 -37 -47h-60v-129q0 -21 -10.5 -30t-34.5 -9 h-110q-45 0 -45 39v129h-301q-29 0 -39.5 8.5t-10.5 34.5zM1272 328h162v252h-7z" />
<glyph unicode="&#xbf;" horiz-adv-x="911" d="M66 -8v26q0 202 206 340l64 43q96 63 119 88q7 7 11 16t5.5 24.5t2 23t0 29.5t-0.5 28q0 41 51 41h113q45 0 45 -41q0 -14 0.5 -40.5t0 -37.5t-1 -30t-2.5 -30t-5.5 -24.5t-9.5 -25.5q-20 -42 -53.5 -72.5t-92.5 -68.5l-65 -43q-74 -48 -105 -94t-31 -113v-23 q0 -75 43 -112q43 -35 140 -35q118 0 256 55q49 19 65 -29l27 -88q7 -27 -1 -42.5t-32 -24.5q-70 -30 -165 -51t-183 -21q-190 0 -295.5 83t-105.5 249zM436 874v11q0 66 37 101.5t100 35.5h9q73 0 106 -34t33 -103v-11q0 -67 -39 -101t-100 -34h-9q-64 0 -100.5 33.5 t-36.5 101.5z" />
<glyph unicode="&#xc0;" horiz-adv-x="1165" d="M11 33.5q0 8.5 3 19.5q161 582 383 1198q17 46 43.5 60t91.5 14h101q65 0 93.5 -14t45.5 -60q194 -529 379 -1198q3 -11 3 -19.5t-1.5 -14t-7.5 -9.5t-10.5 -6t-16 -3t-18.5 -1h-23h-108q-42 0 -60.5 10.5t-27.5 42.5l-68 252h-459l-67 -252q-9 -32 -27.5 -42.5 t-60.5 -10.5h-109h-23.5t-19 1t-16 3t-11 6t-8 9.5t-1.5 14zM296 1606.5q-5 14.5 9 40.5l60 108q12 22 25 26t38 -9l350 -191q29 -17 8 -61l-36 -64q-9 -21 -28 -27t-44 5l-348 145q-29 13 -34 27.5zM414 520h340q-85 303 -158 543h-25q-60 -199 -157 -543z" />
<glyph unicode="&#xc1;" horiz-adv-x="1165" d="M11 33.5q0 8.5 3 19.5q161 582 383 1198q17 46 43.5 60t91.5 14h101q65 0 93.5 -14t45.5 -60q194 -529 379 -1198q3 -11 3 -19.5t-1.5 -14t-7.5 -9.5t-10.5 -6t-16 -3t-18.5 -1h-23h-108q-42 0 -60.5 10.5t-27.5 42.5l-68 252h-459l-67 -252q-9 -32 -27.5 -42.5 t-60.5 -10.5h-109h-23.5t-19 1t-16 3t-11 6t-8 9.5t-1.5 14zM387 1520q-24 42 8 61l350 191q25 13 38.5 9t25.5 -26l59 -108q14 -26 9.5 -41t-33.5 -27l-348 -145q-49 -20 -72 22zM414 520h340q-85 303 -158 543h-25q-60 -199 -157 -543z" />
<glyph unicode="&#xc2;" horiz-adv-x="1165" d="M11 33.5q0 8.5 3 19.5q161 582 383 1198q17 46 43.5 60t91.5 14h101q65 0 93.5 -14t45.5 -60q194 -529 379 -1198q3 -11 3 -19.5t-1.5 -14t-7.5 -9.5t-10.5 -6t-16 -3t-18.5 -1h-23h-108q-42 0 -60.5 10.5t-27.5 42.5l-68 252h-459l-67 -252q-9 -32 -27.5 -42.5 t-60.5 -10.5h-109h-23.5t-19 1t-16 3t-11 6t-8 9.5t-1.5 14zM285 1559l186 223q18 22 51 22h117q31 0 51 -22l189 -223q27 -32 -5 -60l-57 -43q-16 -14 -33 -14t-36 18l-166 160h-7l-159 -160q-32 -34 -70 -4l-57 43q-32 28 -4 60zM414 520h340q-85 303 -158 543h-25 q-60 -199 -157 -543z" />
<glyph unicode="&#xc3;" horiz-adv-x="1165" d="M11 33.5q0 8.5 3 19.5q161 582 383 1198q17 46 43.5 60t91.5 14h101q65 0 93.5 -14t45.5 -60q194 -529 379 -1198q3 -11 3 -19.5t-1.5 -14t-7.5 -9.5t-10.5 -6t-16 -3t-18.5 -1h-23h-108q-42 0 -60.5 10.5t-27.5 42.5l-68 252h-459l-67 -252q-9 -32 -27.5 -42.5 t-60.5 -10.5h-109h-23.5t-19 1t-16 3t-11 6t-8 9.5t-1.5 14zM241 1519q-2 14 7 35q78 172 209 172q66 0 125 -38l55 -35q50 -29 72 -29q41 0 88 72q20 32 57 6l45 -31q19 -12 22 -24.5t-8 -34.5q-44 -79 -100 -120.5t-117 -41.5q-62 0 -123 39l-55 37q-38 24 -61 24 q-43 0 -88 -73q-12 -20 -25 -22.5t-33 9.5l-51 31q-17 10 -19 24zM414 520h340q-85 303 -158 543h-25q-60 -199 -157 -543z" />
<glyph unicode="&#xc4;" horiz-adv-x="1165" d="M11 33.5q0 8.5 3 19.5q161 582 383 1198q17 46 43.5 60t91.5 14h101q65 0 93.5 -14t45.5 -60q194 -529 379 -1198q3 -11 3 -19.5t-1.5 -14t-7.5 -9.5t-10.5 -6t-16 -3t-18.5 -1h-23h-108q-42 0 -60.5 10.5t-27.5 42.5l-68 252h-459l-67 -252q-9 -32 -27.5 -42.5 t-60.5 -10.5h-109h-23.5t-19 1t-16 3t-11 6t-8 9.5t-1.5 14zM295 1585v49q0 46 29.5 73.5t78.5 27.5h21q51 0 82 -27.5t31 -73.5v-49q0 -50 -30 -75t-83 -25h-21q-51 0 -79.5 25t-28.5 75zM414 520h340q-85 303 -158 543h-25q-60 -199 -157 -543zM631 1585v49 q0 46 29.5 73.5t78.5 27.5h19q52 0 81 -27.5t29 -73.5v-49q0 -100 -110 -100h-19q-51 0 -79.5 25t-28.5 75z" />
<glyph unicode="&#xc5;" horiz-adv-x="1165" d="M11 33.5q0 8.5 3 19.5q161 582 383 1198q17 46 43.5 60t91.5 14h101q65 0 93.5 -14t45.5 -60q194 -529 379 -1198q3 -11 3 -19.5t-1.5 -14t-7.5 -9.5t-10.5 -6t-16 -3t-18.5 -1h-23h-108q-42 0 -60.5 10.5t-27.5 42.5l-68 252h-459l-67 -252q-9 -32 -27.5 -42.5 t-60.5 -10.5h-109h-23.5t-19 1t-16 3t-11 6t-8 9.5t-1.5 14zM383 1585q0 83 58 141t141 58q84 0 141 -57.5t57 -141.5q0 -85 -56.5 -142t-141.5 -57q-84 0 -141.5 57.5t-57.5 141.5zM414 520h340q-85 303 -158 543h-25q-60 -199 -157 -543zM516 1585q0 -29 19 -48t47 -19 q29 0 48 19t19 48q0 28 -19 47t-48 19q-28 0 -47 -19t-19 -47z" />
<glyph unicode="&#xc6;" horiz-adv-x="1714" d="M12.5 27q0.5 10 7.5 26q295 605 619 1198q25 46 56 60t96 14h790q34 0 42.5 -9t8.5 -40v-113q0 -30 -8.5 -39.5t-42.5 -9.5h-510v-326h442q34 0 43 -9.5t9 -39.5v-112q0 -29 -9 -39t-43 -10h-442v-310q0 -33 15.5 -45t50.5 -12h442q34 0 43.5 -9.5t9.5 -39.5v-113 q0 -29 -9.5 -39t-43.5 -10h-469q-159 0 -219 49q-72 59 -72 189v67h-405l-121 -252q-17 -33 -37 -43t-61 -10h-109q-22 0 -32 0.5t-22.5 3t-16 8t-3 15.5zM518 520h301v596h-18q-49 -95 -147 -307t-136 -289z" />
<glyph unicode="&#xc7;" horiz-adv-x="1091" d="M98 621v81q0 219 39 341.5t139 203.5q122 96 359 96q210 0 366 -92q17 -9 20.5 -21.5t-5.5 -37.5l-49 -123q-16 -40 -66 -12q-134 73 -266 73q-73 0 -117.5 -15t-77.5 -48q-45 -45 -61.5 -134t-16.5 -251v-37q0 -158 16.5 -244t53.5 -131q63 -75 230 -75q135 0 262 55 q49 19 61 -33l25 -98q7 -30 -0.5 -45.5t-42.5 -28.5q-153 -60 -318 -63l-18 -101q30 6 63 6q69 0 117.5 -43.5t48.5 -128.5q0 -202 -242 -202q-97 0 -174 24q-19 6 -24 14.5t-2 28.5l10 66q3 18 10.5 22.5t26.5 -0.5q62 -20 129 -20q45 0 65.5 12.5t20.5 44.5q0 28 -15 40.5 t-53 12.5q-17 0 -71 -8q-29 -5 -45 17l-17 24q-11 19 -8 37l35 158v2q-179 18 -273 112q-73 73 -104 195.5t-31 325.5z" />
<glyph unicode="&#xc8;" horiz-adv-x="1019" d="M106 621v84q0 209 19 382q14 139 80 193q57 45 211 45h471q34 0 42.5 -9t8.5 -40v-113q0 -30 -8.5 -39.5t-42.5 -9.5h-447q-31 0 -47.5 -13.5t-19.5 -47.5q-13 -156 -13 -265h459q34 0 42.5 -9t8.5 -40v-112q0 -30 -8.5 -39.5t-42.5 -9.5h-459q0 -154 15 -310 q3 -34 17 -45.5t48 -11.5h445q34 0 43.5 -9.5t9.5 -39.5v-113q0 -29 -9.5 -39t-43.5 -10h-469q-159 0 -219 49q-32 26 -47 69t-25 120q-19 173 -19 383zM314.5 1606.5q-4.5 14.5 9.5 40.5l59 108q12 22 25 26t38 -9l351 -191q29 -17 8 -61l-37 -64q-9 -21 -28 -27t-44 5 l-348 145q-29 13 -33.5 27.5z" />
<glyph unicode="&#xc9;" horiz-adv-x="1019" d="M106 621v84q0 209 19 382q14 139 80 193q57 45 211 45h471q34 0 42.5 -9t8.5 -40v-113q0 -30 -8.5 -39.5t-42.5 -9.5h-447q-31 0 -47.5 -13.5t-19.5 -47.5q-13 -156 -13 -265h459q34 0 42.5 -9t8.5 -40v-112q0 -30 -8.5 -39.5t-42.5 -9.5h-459q0 -154 15 -310 q3 -34 17 -45.5t48 -11.5h445q34 0 43.5 -9.5t9.5 -39.5v-113q0 -29 -9.5 -39t-43.5 -10h-469q-159 0 -219 49q-32 26 -47 69t-25 120q-19 173 -19 383zM383 1520q-24 42 8 61l350 191q25 13 38.5 9t25.5 -26l59 -108q14 -26 9.5 -41t-33.5 -27l-348 -145q-49 -20 -72 22z " />
<glyph unicode="&#xca;" horiz-adv-x="1019" d="M106 621v84q0 209 19 382q14 139 80 193q57 45 211 45h471q34 0 42.5 -9t8.5 -40v-113q0 -30 -8.5 -39.5t-42.5 -9.5h-447q-31 0 -47.5 -13.5t-19.5 -47.5q-13 -156 -13 -265h459q34 0 42.5 -9t8.5 -40v-112q0 -30 -8.5 -39.5t-42.5 -9.5h-459q0 -154 15 -310 q3 -34 17 -45.5t48 -11.5h445q34 0 43.5 -9.5t9.5 -39.5v-113q0 -29 -9.5 -39t-43.5 -10h-469q-159 0 -219 49q-32 26 -47 69t-25 120q-19 173 -19 383zM289 1559l186 223q18 22 51 22h117q31 0 51 -22l189 -223q28 -32 -4 -60l-58 -43q-16 -14 -33 -14t-36 18l-166 160h-6 l-160 -160q-32 -34 -70 -4l-57 43q-32 28 -4 60z" />
<glyph unicode="&#xcb;" horiz-adv-x="1019" d="M106 621v84q0 209 19 382q14 139 80 193q57 45 211 45h471q34 0 42.5 -9t8.5 -40v-113q0 -30 -8.5 -39.5t-42.5 -9.5h-447q-31 0 -47.5 -13.5t-19.5 -47.5q-13 -156 -13 -265h459q34 0 42.5 -9t8.5 -40v-112q0 -30 -8.5 -39.5t-42.5 -9.5h-459q0 -154 15 -310 q3 -34 17 -45.5t48 -11.5h445q34 0 43.5 -9.5t9.5 -39.5v-113q0 -29 -9.5 -39t-43.5 -10h-469q-159 0 -219 49q-32 26 -47 69t-25 120q-19 173 -19 383zM289 1585v49q0 46 29.5 73.5t78.5 27.5h21q51 0 81.5 -27.5t30.5 -73.5v-49q0 -50 -29.5 -75t-82.5 -25h-21 q-51 0 -79.5 25t-28.5 75zM625 1585v49q0 46 29.5 73.5t78.5 27.5h19q52 0 81 -27.5t29 -73.5v-49q0 -100 -110 -100h-19q-51 0 -79.5 25t-28.5 75z" />
<glyph unicode="&#xcc;" horiz-adv-x="550" d="M-44 1606.5q-5 14.5 9 40.5l60 108q12 22 25 26t38 -9l350 -191q29 -17 8 -61l-36 -64q-9 -21 -28 -27t-44 5l-348 145q-29 13 -34 27.5zM147 51v1223q0 32 11 41.5t45 9.5h147q34 0 45 -9.5t11 -41.5v-1223q0 -32 -11 -41.5t-45 -9.5h-147q-34 0 -45 9.5t-11 41.5z" />
<glyph unicode="&#xcd;" horiz-adv-x="550" d="M100 1520q-24 41 9 61l350 191q25 13 38 9t25 -26l60 -108q14 -26 9 -41t-34 -27l-348 -145q-49 -20 -72 22zM147 51v1223q0 32 11 41.5t45 9.5h147q34 0 45 -9.5t11 -41.5v-1223q0 -32 -11 -41.5t-45 -9.5h-147q-34 0 -45 9.5t-11 41.5z" />
<glyph unicode="&#xce;" horiz-adv-x="550" d="M-25 1559l187 223q18 22 51 22h117q31 0 51 -22l188 -223q28 -32 -4 -60l-57 -43q-36 -28 -70 4l-166 160h-6l-160 -160q-31 -34 -69 -4l-57 43q-32 28 -5 60zM147 51v1223q0 32 11 41.5t45 9.5h147q34 0 45 -9.5t11 -41.5v-1223q0 -32 -11 -41.5t-45 -9.5h-147 q-34 0 -45 9.5t-11 41.5z" />
<glyph unicode="&#xcf;" horiz-adv-x="550" d="M-10 1585v49q0 46 29.5 73.5t78.5 27.5h21q51 0 81.5 -27.5t30.5 -73.5v-49q0 -50 -29.5 -75t-82.5 -25h-21q-51 0 -79.5 25t-28.5 75zM147 51v1223q0 32 11 41.5t45 9.5h147q34 0 45 -9.5t11 -41.5v-1223q0 -32 -11 -41.5t-45 -9.5h-147q-34 0 -45 9.5t-11 41.5z M326 1585v49q0 46 29.5 73.5t78.5 27.5h19q52 0 81 -27.5t29 -73.5v-49q0 -100 -110 -100h-19q-51 0 -79.5 25t-28.5 75z" />
<glyph unicode="&#xd0;" horiz-adv-x="1263" d="M-6 643v70q0 50 10 62.5t49 12.5h86v449q0 45 15.5 63t56.5 23q123 12 287 12q180 0 298 -33t201 -104q87 -76 127.5 -191.5t40.5 -285.5v-117q0 -331 -180 -471q-94 -73 -215.5 -103t-325.5 -30q-203 0 -233 2q-41 3 -56.5 20.5t-15.5 63.5v481h-86q-39 0 -49 13t-10 63 zM397 254q0 -26 11 -36.5t38 -10.5h64q216 0 303.5 94t87.5 322v90q0 120 -17.5 195.5t-63.5 126t-121.5 71t-194.5 20.5q-52 0 -72 -2q-19 -2 -27 -10t-8 -27v-299h146q39 0 49 -12.5t10 -62.5v-74q0 -47 -10.5 -59.5t-48.5 -12.5h-146v-313z" />
<glyph unicode="&#xd1;" horiz-adv-x="1314" d="M139 51v1223q0 32 11 41.5t45 9.5h122q40 0 61 -10t40 -39l510 -844h8v842q0 32 10.5 41.5t44.5 9.5h129q34 0 45 -9.5t11 -41.5v-1223q0 -32 -11 -41.5t-45 -9.5h-123q-40 0 -60.5 10t-39.5 39l-510 825h-8v-823q0 -32 -10.5 -41.5t-44.5 -9.5h-129q-34 0 -45 9.5 t-11 41.5zM327 1519q-2 14 7 35q78 172 209 172q66 0 125 -38l55 -35q50 -29 72 -29q41 0 88 72q20 32 57 6l45 -31q19 -12 22 -24.5t-8 -34.5q-44 -79 -100 -120.5t-117 -41.5q-62 0 -123 39l-55 37q-38 24 -61 24q-43 0 -88 -73q-12 -20 -25 -22.5t-33 9.5l-51 31 q-17 10 -19 24z" />
<glyph unicode="&#xd2;" horiz-adv-x="1265" d="M98 621v84q0 344 148 505q65 68 156.5 100.5t230.5 32.5q253 0 383 -133q151 -154 151 -505v-84q0 -352 -151 -506q-130 -133 -383 -133q-139 0 -230.5 32.5t-156.5 100.5q-148 161 -148 506zM355.5 1606.5q-4.5 14.5 9.5 40.5l59 108q12 22 25 26t38 -9l351 -191 q29 -17 8 -61l-37 -64q-9 -21 -28 -27t-44 5l-348 145q-29 13 -33.5 27.5zM362 641q0 -126 12.5 -213t55.5 -149q57 -84 203 -84t203 84q41 62 54 149.5t13 212.5v43q0 125 -13 213t-54 150q-57 83 -203 83t-203 -83q-43 -62 -55.5 -149t-12.5 -214v-43z" />
<glyph unicode="&#xd3;" horiz-adv-x="1265" d="M98 621v84q0 344 148 505q65 68 156.5 100.5t230.5 32.5q253 0 383 -133q151 -154 151 -505v-84q0 -352 -151 -506q-130 -133 -383 -133q-139 0 -230.5 32.5t-156.5 100.5q-148 161 -148 506zM362 641q0 -126 12.5 -213t55.5 -149q57 -84 203 -84t203 84q41 62 54 149.5 t13 212.5v43q0 125 -13 213t-54 150q-57 83 -203 83t-203 -83q-43 -62 -55.5 -149t-12.5 -214v-43zM457 1520q-24 42 8 61l350 191q25 13 38.5 9t25.5 -26l59 -108q14 -26 9 -41t-34 -27l-348 -145q-48 -19 -71 22z" />
<glyph unicode="&#xd4;" horiz-adv-x="1265" d="M98 621v84q0 344 148 505q65 68 156.5 100.5t230.5 32.5q253 0 383 -133q151 -154 151 -505v-84q0 -352 -151 -506q-130 -133 -383 -133q-139 0 -230.5 32.5t-156.5 100.5q-148 161 -148 506zM344 1559l186 223q18 22 52 22h116q32 0 52 -22l188 -223q28 -32 -4 -60 l-57 -43q-36 -28 -70 4l-166 160h-6l-160 -160q-31 -34 -69 -4l-58 43q-32 28 -4 60zM362 641q0 -126 12.5 -213t55.5 -149q57 -84 203 -84t203 84q41 62 54 149.5t13 212.5v43q0 125 -13 213t-54 150q-57 83 -203 83t-203 -83q-43 -62 -55.5 -149t-12.5 -214v-43z" />
<glyph unicode="&#xd5;" horiz-adv-x="1265" d="M98 621v84q0 344 148 505q65 68 156.5 100.5t230.5 32.5q253 0 383 -133q151 -154 151 -505v-84q0 -352 -151 -506q-130 -133 -383 -133q-139 0 -230.5 32.5t-156.5 100.5q-148 161 -148 506zM298 1519q-2 14 7 35q78 172 209 172q66 0 125 -38l55 -35q50 -29 72 -29 q41 0 88 72q20 32 57 6l45 -31q19 -12 22 -24.5t-7 -34.5q-44 -79 -100 -120.5t-117 -41.5q-62 0 -123 39l-56 37q-37 24 -61 24q-43 0 -88 -73q-12 -20 -24.5 -22.5t-32.5 9.5l-52 31q-17 10 -19 24zM362 641q0 -126 12.5 -213t55.5 -149q57 -84 203 -84t203 84 q41 62 54 149.5t13 212.5v43q0 125 -13 213t-54 150q-57 83 -203 83t-203 -83q-43 -62 -55.5 -149t-12.5 -214v-43z" />
<glyph unicode="&#xd6;" horiz-adv-x="1265" d="M98 621v84q0 344 148 505q65 68 156.5 100.5t230.5 32.5q253 0 383 -133q151 -154 151 -505v-84q0 -352 -151 -506q-130 -133 -383 -133q-139 0 -230.5 32.5t-156.5 100.5q-148 161 -148 506zM350 1585v49q0 46 30 73.5t79 27.5h20q51 0 82 -27.5t31 -73.5v-49 q0 -50 -30 -75t-83 -25h-20q-51 0 -80 25t-29 75zM362 641q0 -126 12.5 -213t55.5 -149q57 -84 203 -84t203 84q41 62 54 149.5t13 212.5v43q0 125 -13 213t-54 150q-57 83 -203 83t-203 -83q-43 -62 -55.5 -149t-12.5 -214v-43zM686 1585v49q0 46 30 73.5t79 27.5h18 q52 0 81.5 -27.5t29.5 -73.5v-49q0 -100 -111 -100h-18q-51 0 -80 25t-29 75z" />
<glyph unicode="&#xd7;" d="M146.5 783q-4.5 18 4 33.5t31.5 37.5l49 43q22 20 36 29t34 6.5t41 -23.5l219 -213l207 203q23 23 42 27.5t32 -3t32 -26.5l54 -51q24 -24 27 -45t-4 -31.5t-23 -26.5l-207 -206l221 -222q45 -47 -16 -108l-52 -49q-29 -30 -52 -33t-52 22l-221 218l-207 -203 q-24 -24 -41.5 -29.5t-30 2t-34.5 29.5l-52 47q-20 20 -27.5 32.5t-3 31t28.5 42.5l207 207l-217 219q-21 22 -25.5 40z" />
<glyph unicode="&#xd8;" horiz-adv-x="1265" d="M98 621v84q0 344 148 505q65 68 156.5 100.5t230.5 32.5q153 0 256 -47l78 140q13 26 31 29.5t49 -13.5l53 -29q30 -17 34 -32t-12 -41l-88 -160q133 -157 133 -485v-84q0 -352 -151 -506q-130 -133 -383 -133q-155 0 -246 36l-68 -120q-14 -26 -31 -30t-48 13l-54 29 q-30 17 -34 32.5t12 41.5l76 137q-142 160 -142 500zM362 641q0 -176 21 -258l397 715q-54 32 -147 32q-146 0 -203 -83q-43 -62 -55.5 -149t-12.5 -214v-43zM498 219q52 -24 135 -24q146 0 203 84q41 62 54 149.5t13 212.5v43q0 143 -18 236z" />
<glyph unicode="&#xd9;" horiz-adv-x="1257" d="M123 449v825q0 32 10.5 41.5t44.5 9.5h148q34 0 44.5 -9.5t10.5 -41.5v-813q0 -144 55 -199q61 -67 193 -67q130 0 194 67q54 60 54 199v813q0 32 10.5 41.5t44.5 9.5h147q34 0 45 -9.5t11 -41.5v-825q0 -125 -29.5 -209t-93.5 -144q-117 -114 -383 -114q-264 0 -381 114 q-125 116 -125 353zM339 1606.5q-5 14.5 9 40.5l60 108q12 22 25 26t38 -9l350 -191q29 -17 8 -61l-36 -64q-9 -21 -28 -27t-44 5l-348 145q-29 13 -34 27.5z" />
<glyph unicode="&#xda;" horiz-adv-x="1257" d="M123 449v825q0 32 10.5 41.5t44.5 9.5h148q34 0 44.5 -9.5t10.5 -41.5v-813q0 -144 55 -199q61 -67 193 -67q130 0 194 67q54 60 54 199v813q0 32 10.5 41.5t44.5 9.5h147q34 0 45 -9.5t11 -41.5v-825q0 -125 -29.5 -209t-93.5 -144q-117 -114 -383 -114q-264 0 -381 114 q-125 116 -125 353zM451 1520q-24 42 8 61l350 191q25 13 38 9t25 -26l60 -108q14 -26 9 -41t-34 -27l-348 -145q-49 -20 -72 22z" />
<glyph unicode="&#xdb;" horiz-adv-x="1257" d="M123 449v825q0 32 10.5 41.5t44.5 9.5h148q34 0 44.5 -9.5t10.5 -41.5v-813q0 -144 55 -199q61 -67 193 -67q130 0 194 67q54 60 54 199v813q0 32 10.5 41.5t44.5 9.5h147q34 0 45 -9.5t11 -41.5v-825q0 -125 -29.5 -209t-93.5 -144q-117 -114 -383 -114q-264 0 -381 114 q-125 116 -125 353zM336 1559l186 223q18 22 51 22h117q31 0 51 -22l189 -223q28 -32 -4 -60l-58 -43q-16 -14 -33 -14t-36 18l-166 160h-6l-160 -160q-32 -34 -70 -4l-57 43q-32 28 -4 60z" />
<glyph unicode="&#xdc;" horiz-adv-x="1257" d="M123 449v825q0 32 10.5 41.5t44.5 9.5h148q34 0 44.5 -9.5t10.5 -41.5v-813q0 -144 55 -199q61 -67 193 -67q130 0 194 67q54 60 54 199v813q0 32 10.5 41.5t44.5 9.5h147q34 0 45 -9.5t11 -41.5v-825q0 -125 -29.5 -209t-93.5 -144q-117 -114 -383 -114q-264 0 -381 114 q-125 116 -125 353zM346 1585v49q0 46 30 73.5t79 27.5h20q51 0 82 -27.5t31 -73.5v-49q0 -50 -30 -75t-83 -25h-20q-51 0 -80 25t-29 75zM682 1585v49q0 46 30 73.5t79 27.5h18q52 0 81.5 -27.5t29.5 -73.5v-49q0 -100 -111 -100h-18q-51 0 -80 25t-29 75z" />
<glyph unicode="&#xdd;" horiz-adv-x="1021" d="M29 1282q-7 25 4.5 34t46.5 9h141q26 0 36 -1.5t18.5 -11t13.5 -30.5q33 -139 94 -320.5t121 -312.5h14q58 128 119 309t96 324q7 30 19.5 36.5t48.5 6.5h141q35 0 46.5 -9t4.5 -34q-151 -508 -354 -854v-377q0 -32 -10.5 -41.5t-44.5 -9.5h-148q-34 0 -44.5 9.5 t-10.5 41.5v377q-206 364 -352 854zM319 1520q-24 41 9 61l350 191q25 13 38 9t25 -26l60 -108q14 -26 9 -41t-34 -27l-348 -145q-49 -20 -72 22z" />
<glyph unicode="&#xde;" horiz-adv-x="1126" d="M139 55v1215q0 34 12 44.5t48 10.5h139q36 0 47.5 -10t11.5 -45v-156h148q135 0 223 -23t154 -75q120 -94 120 -318v-36q0 -223 -133 -328q-130 -103 -393 -103h-119v-176q0 -35 -11.5 -45t-47.5 -10h-139q-36 0 -48 10.5t-12 44.5zM397 446h127q140 0 197 51t57 175v26 q0 114 -53 158q-31 25 -73.5 35t-121.5 10h-133v-455z" />
<glyph unicode="&#xdf;" horiz-adv-x="1128" d="M123 -121v1116q0 124 29 199.5t90 122.5q120 88 331 88q91 0 169.5 -23t129.5 -61q55 -40 88 -110.5t33 -149.5v-21q0 -238 -155 -297v-6q103 -22 159 -94q60 -78 60 -219v-45q0 -101 -28 -180t-75 -125q-100 -92 -297 -92q-93 0 -186 14q-20 3 -27.5 13t-5.5 32l8 115 q1 20 12 26.5t36 1.5q49 -8 120 -8q195 0 195 221v31q0 104 -47 145q-31 28 -72 39t-112 11h-60q-20 0 -28.5 7.5t-8.5 26.5v129q0 37 37 37h27q53 0 81.5 5t55.5 22q63 40 63 164v20q0 78 -46 125t-134 47q-102 0 -147 -45q-51 -51 -51 -184v-1098q0 -30 -12 -40.5 t-46 -10.5h-129q-34 0 -45.5 10t-11.5 41z" />
<glyph unicode="&#xe0;" horiz-adv-x="1003" d="M74 276v48q0 166 86 237q90 76 299 76h73q45 0 115 -4v55q0 77 -35 105t-141 28q-124 0 -252 -39q-42 -13 -51 33l-18 96q-7 26 -1 40.5t31 21.5q149 49 309 49q108 0 175 -15t120 -51q57 -39 82 -101t25 -169v-647q0 -39 -43 -39h-94q-23 0 -33.5 8.5t-15.5 28.5l-13 49 h-4q-30 -53 -83 -78.5t-142 -25.5h-76q-80 0 -132 15t-93 50q-88 76 -88 229zM256 1321q-3 14 14 39l72 102q14 21 27.5 23.5t36.5 -12.5l327 -228q29 -21 2 -63l-43 -60q-27 -42 -74 -14l-331 182q-28 17 -31 31zM319 293q0 -64 31 -92q29 -25 90 -25h74q70 0 101.5 33 t31.5 104v125q-70 4 -119 4h-71q-80 0 -107 -24q-31 -24 -31 -101v-24z" />
<glyph unicode="&#xe1;" horiz-adv-x="1003" d="M74 276v48q0 166 86 237q90 76 299 76h73q45 0 115 -4v55q0 77 -35 105t-141 28q-124 0 -252 -39q-42 -13 -51 33l-18 96q-7 26 -1 40.5t31 21.5q149 49 309 49q108 0 175 -15t120 -51q57 -39 82 -101t25 -169v-647q0 -39 -43 -39h-94q-23 0 -33.5 8.5t-15.5 28.5l-13 49 h-4q-30 -53 -83 -78.5t-142 -25.5h-76q-80 0 -132 15t-93 50q-88 76 -88 229zM319 293q0 -64 31 -92q29 -25 90 -25h74q70 0 101.5 33t31.5 104v125q-70 4 -119 4h-71q-80 0 -107 -24q-31 -24 -31 -101v-24zM338 1182q-27 42 2 63l328 228q23 15 36 12.5t27 -23.5l72 -102 q17 -25 14 -39t-31 -31l-331 -182q-47 -28 -74 14z" />
<glyph unicode="&#xe2;" horiz-adv-x="1003" d="M74 276v48q0 166 86 237q90 76 299 76h73q45 0 115 -4v55q0 77 -35 105t-141 28q-124 0 -252 -39q-42 -13 -51 33l-18 96q-7 26 -1 40.5t31 21.5q149 49 309 49q108 0 175 -15t120 -51q57 -39 82 -101t25 -169v-647q0 -39 -43 -39h-94q-23 0 -33.5 8.5t-15.5 28.5l-13 49 h-4q-30 -53 -83 -78.5t-142 -25.5h-76q-80 0 -132 15t-93 50q-88 76 -88 229zM225 1227l187 223q18 23 51 23h117q30 0 51 -23l188 -223q28 -32 -4 -60l-57 -43q-36 -28 -70 4l-166 160h-6l-160 -160q-31 -34 -69 -4l-58 43q-32 28 -4 60zM319 293q0 -64 31 -92 q29 -25 90 -25h74q70 0 101.5 33t31.5 104v125q-70 4 -119 4h-71q-80 0 -107 -24q-31 -24 -31 -101v-24z" />
<glyph unicode="&#xe3;" horiz-adv-x="1003" d="M74 276v48q0 166 86 237q90 76 299 76h73q45 0 115 -4v55q0 77 -35 105t-141 28q-124 0 -252 -39q-42 -13 -51 33l-18 96q-7 26 -1 40.5t31 21.5q149 49 309 49q108 0 175 -15t120 -51q57 -39 82 -101t25 -169v-647q0 -39 -43 -39h-94q-23 0 -33.5 8.5t-15.5 28.5l-13 49 h-4q-30 -53 -83 -78.5t-142 -25.5h-76q-80 0 -132 15t-93 50q-88 76 -88 229zM186 1208q-2 14 7 35q78 172 208 172q64 0 125 -39l56 -35q48 -28 71 -28q42 0 88 71q20 33 58 7l45 -31q19 -12 22 -25t-8 -35q-44 -79 -100 -120t-117 -41q-62 0 -123 39l-55 36q-39 25 -62 25 q-43 0 -88 -74q-12 -20 -24.5 -22t-32.5 10l-51 31q-17 10 -19 24zM319 293q0 -64 31 -92q29 -25 90 -25h74q70 0 101.5 33t31.5 104v125q-70 4 -119 4h-71q-80 0 -107 -24q-31 -24 -31 -101v-24z" />
<glyph unicode="&#xe4;" horiz-adv-x="1003" d="M74 276v48q0 166 86 237q90 76 299 76h73q45 0 115 -4v55q0 77 -35 105t-141 28q-124 0 -252 -39q-42 -13 -51 33l-18 96q-7 26 -1 40.5t31 21.5q149 49 309 49q108 0 175 -15t120 -51q57 -39 82 -101t25 -169v-647q0 -39 -43 -39h-94q-23 0 -33.5 8.5t-15.5 28.5l-13 49 h-4q-30 -53 -83 -78.5t-142 -25.5h-76q-80 0 -132 15t-93 50q-88 76 -88 229zM236 1270v49q0 46 29.5 73t78.5 27h21q51 0 81.5 -27t30.5 -73v-49q0 -50 -30 -75.5t-82 -25.5h-21q-51 0 -79.5 25.5t-28.5 75.5zM319 293q0 -64 31 -92q29 -25 90 -25h74q70 0 101.5 33 t31.5 104v125q-70 4 -119 4h-71q-80 0 -107 -24q-31 -24 -31 -101v-24zM571 1270v49q0 46 29.5 73t79.5 27h18q52 0 81.5 -27t29.5 -73v-49q0 -101 -111 -101h-18q-51 0 -80 25.5t-29 75.5z" />
<glyph unicode="&#xe5;" horiz-adv-x="1003" d="M74 276v48q0 166 86 237q90 76 299 76h73q45 0 115 -4v55q0 77 -35 105t-141 28q-124 0 -252 -39q-42 -13 -51 33l-18 96q-7 26 -1 40.5t31 21.5q149 49 309 49q108 0 175 -15t120 -51q57 -39 82 -101t25 -169v-647q0 -39 -43 -39h-94q-23 0 -33.5 8.5t-15.5 28.5l-13 49 h-4q-30 -53 -83 -78.5t-142 -25.5h-76q-80 0 -132 15t-93 50q-88 76 -88 229zM315 1294q0 83 58 141t141 58q84 0 141.5 -57.5t57.5 -141.5q0 -85 -57 -141.5t-142 -56.5q-84 0 -141.5 57t-57.5 141zM319 293q0 -64 31 -92q29 -25 90 -25h74q70 0 101.5 33t31.5 104v125 q-70 4 -119 4h-71q-80 0 -107 -24q-31 -24 -31 -101v-24zM449 1294q0 -29 18.5 -48t46.5 -19q29 0 48.5 19t19.5 48q0 28 -19.5 47t-48.5 19q-28 0 -46.5 -19t-18.5 -47z" />
<glyph unicode="&#xe6;" horiz-adv-x="1542" d="M74 276v48q0 166 86 237q90 76 299 76h73q45 0 115 -4v55q0 77 -35 105t-141 28q-124 0 -252 -39q-42 -13 -51 33l-18 96q-7 26 -1 40.5t31 21.5q149 49 301 49q130 0 201.5 -26.5t108.5 -80.5q90 107 278 107q186 0 289 -92q54 -48 79 -126t25 -220v-140 q0 -33 -11.5 -46t-43.5 -13h-512q3 -121 51 -164q44 -41 180 -41q52 0 116 12t106 31q18 10 33.5 3.5t23.5 -36.5l27 -98q6 -24 -1 -35.5t-36 -21.5q-138 -53 -297 -53q-236 0 -326 137q-82 -137 -309 -137h-76q-80 0 -132 15t-93 50q-88 76 -88 229zM319 293q0 -64 31 -92 q29 -25 90 -25h74q70 0 101.5 33t31.5 104v125q-70 4 -119 4h-71q-80 0 -107 -24q-31 -24 -31 -101v-24zM891 578h301q27 0 27 28q0 138 -39 182q-36 39 -119 39q-79 0 -117 -41q-53 -56 -53 -208z" />
<glyph unicode="&#xe7;" horiz-adv-x="911" d="M82 477v62q0 141 28.5 236.5t94.5 152.5q111 94 307 94q84 0 169 -23.5t146 -60.5q43 -26 21 -72l-51 -102q-8 -16 -23.5 -20.5t-36.5 6.5q-105 67 -215 67q-88 0 -137 -43q-21 -18 -32.5 -40.5t-16.5 -61.5t-5.5 -63t-0.5 -87v-33q0 -109 9.5 -163t37.5 -88 q51 -58 158 -58q111 0 206 43q52 24 64 -22l26 -95q7 -27 -1 -40.5t-42 -30.5q-87 -44 -251 -51l-19 -103q30 6 64 6q69 0 117.5 -43.5t48.5 -128.5q0 -202 -242 -202q-97 0 -174 24q-19 6 -24.5 14.5t-2.5 28.5l10 66q3 18 10.5 22.5t26.5 -0.5q62 -20 129 -20 q45 0 65.5 12.5t20.5 44.5q0 28 -15 40.5t-52 12.5q-18 0 -72 -8q-29 -5 -45 17l-16 24q-11 20 -9 37l35 158v4q-124 19 -196 84q-68 61 -91.5 158t-23.5 245z" />
<glyph unicode="&#xe8;" horiz-adv-x="972" d="M78 475v55q0 251 96.5 371.5t325.5 120.5q185 0 288 -92q54 -48 79.5 -126.5t25.5 -219.5v-140q0 -33 -11.5 -46t-43.5 -13h-512q3 -121 51 -164q44 -41 180 -41q52 0 115.5 12t105.5 31q44 18 58 -33l26 -98q6 -24 -1 -35.5t-36 -21.5q-138 -53 -297 -53 q-243 0 -344 104q-58 60 -82 151.5t-24 237.5zM235.5 1321q-3.5 14 14.5 39l72 102q14 21 27 23.5t36 -12.5l328 -228q29 -21 2 -63l-43 -60q-27 -42 -74 -14l-332 182q-27 17 -30.5 31zM322 578h301q15 0 20.5 6.5t5.5 21.5q0 138 -39 182q-36 39 -118 39q-79 0 -117 -41 q-53 -56 -53 -208z" />
<glyph unicode="&#xe9;" horiz-adv-x="972" d="M78 475v55q0 251 96.5 371.5t325.5 120.5q185 0 288 -92q54 -48 79.5 -126.5t25.5 -219.5v-140q0 -33 -11.5 -46t-43.5 -13h-512q3 -121 51 -164q44 -41 180 -41q52 0 115.5 12t105.5 31q44 18 58 -33l26 -98q6 -24 -1 -35.5t-36 -21.5q-138 -53 -297 -53 q-243 0 -344 104q-58 60 -82 151.5t-24 237.5zM322 578h301q15 0 20.5 6.5t5.5 21.5q0 138 -39 182q-36 39 -118 39q-79 0 -117 -41q-53 -56 -53 -208zM334 1182q-27 42 2 63l328 228q23 15 36 12.5t27 -23.5l72 -102q17 -25 14 -39t-31 -31l-331 -182q-47 -28 -74 14z" />
<glyph unicode="&#xea;" horiz-adv-x="972" d="M78 475v55q0 251 96.5 371.5t325.5 120.5q185 0 288 -92q54 -48 79.5 -126.5t25.5 -219.5v-140q0 -33 -11.5 -46t-43.5 -13h-512q3 -121 51 -164q44 -41 180 -41q52 0 115.5 12t105.5 31q44 18 58 -33l26 -98q6 -24 -1 -35.5t-36 -21.5q-138 -53 -297 -53 q-243 0 -344 104q-58 60 -82 151.5t-24 237.5zM211 1227l186 223q18 23 52 23h116q30 0 51 -23l189 -223q28 -32 -4 -60l-58 -43q-16 -14 -33 -14t-36 18l-166 160h-6l-160 -160q-32 -34 -70 -4l-57 43q-32 28 -4 60zM322 578h301q15 0 20.5 6.5t5.5 21.5q0 138 -39 182 q-36 39 -118 39q-79 0 -117 -41q-53 -56 -53 -208z" />
<glyph unicode="&#xeb;" horiz-adv-x="972" d="M78 475v55q0 251 96.5 371.5t325.5 120.5q185 0 288 -92q54 -48 79.5 -126.5t25.5 -219.5v-140q0 -33 -11.5 -46t-43.5 -13h-512q3 -121 51 -164q44 -41 180 -41q52 0 115.5 12t105.5 31q44 18 58 -33l26 -98q6 -24 -1 -35.5t-36 -21.5q-138 -53 -297 -53 q-243 0 -344 104q-58 60 -82 151.5t-24 237.5zM217 1270v49q0 46 29.5 73t79.5 27h20q51 0 82 -27t31 -73v-49q0 -50 -30 -75.5t-83 -25.5h-20q-51 0 -80 25.5t-29 75.5zM322 578h301q15 0 20.5 6.5t5.5 21.5q0 138 -39 182q-36 39 -118 39q-79 0 -117 -41q-53 -56 -53 -208 zM553 1270v49q0 46 29.5 73t79.5 27h18q52 0 81.5 -27t29.5 -73v-49q0 -101 -111 -101h-18q-51 0 -80 25.5t-29 75.5z" />
<glyph unicode="&#xec;" horiz-adv-x="501" d="M-73.5 1317q-3.5 14 14.5 39l71 102q14 20 27.5 22.5t36.5 -12.5l327 -227q30 -21 3 -63l-44 -60q-26 -41 -73 -14l-332 182q-27 17 -30.5 31zM129 51v901q0 31 11.5 41.5t45.5 10.5h129q34 0 46 -10.5t12 -41.5v-901q0 -30 -12 -40.5t-46 -10.5h-129q-34 0 -45.5 10 t-11.5 41z" />
<glyph unicode="&#xed;" horiz-adv-x="501" d="M117 1182q-27 42 2 63l327 228q23 15 36.5 12.5t27.5 -23.5l72 -102q17 -25 14 -39t-31 -31l-332 -182q-47 -27 -73 14zM129 51v901q0 31 11.5 41.5t45.5 10.5h129q34 0 46 -10.5t12 -41.5v-901q0 -30 -12 -40.5t-46 -10.5h-129q-34 0 -45.5 10t-11.5 41z" />
<glyph unicode="&#xee;" horiz-adv-x="501" d="M-45 1227l186 223q18 23 52 23h116q30 0 51 -23l189 -223q28 -32 -4 -60l-58 -43q-16 -14 -33 -14t-36 18l-166 160h-6l-160 -160q-32 -34 -70 -4l-57 43q-32 28 -4 60zM129 51v901q0 31 11.5 41.5t45.5 10.5h129q34 0 46 -10.5t12 -41.5v-901q0 -30 -12 -40.5t-46 -10.5 h-129q-34 0 -45.5 10t-11.5 41z" />
<glyph unicode="&#xef;" horiz-adv-x="501" d="M-35 1270v49q0 46 29.5 73t79.5 27h20q51 0 82 -27t31 -73v-49q0 -50 -30 -75.5t-83 -25.5h-20q-51 0 -80 25.5t-29 75.5zM129 51v901q0 31 11.5 41.5t45.5 10.5h129q34 0 46 -10.5t12 -41.5v-901q0 -30 -12 -40.5t-46 -10.5h-129q-34 0 -45.5 10t-11.5 41zM301 1270v49 q0 46 29.5 73t79.5 27h18q52 0 81.5 -27t29.5 -73v-49q0 -101 -111 -101h-18q-51 0 -80 25.5t-29 75.5z" />
<glyph unicode="&#xf0;" horiz-adv-x="1071" d="M82 406v124q0 120 24 195.5t80 130.5q44 42 119 67t164 25q131 0 205 -49l6 6q-16 80 -55.5 133.5t-114.5 112.5l-70 -96q-10 -15 -21 -15.5t-30 11.5l-59 41q-30 21 -13 49l66 90q-55 30 -117 57q-31 13 -10 43l63 105q15 22 46 8q45 -18 131 -58l65 93q11 18 25.5 18.5 t34.5 -12.5l49 -33q20 -13 23 -25.5t-9 -31.5l-59 -82q78 -53 134.5 -113.5t102.5 -144t69 -196.5t23 -255v-92q0 -190 -16 -278t-80 -152q-46 -46 -135 -73t-203 -27q-245 0 -340 100q-52 55 -75 132.5t-23 191.5zM326 416q0 -145 43 -193q42 -45 159 -45q96 0 142 49 q37 41 37 152v145q0 120 -44 174t-139 54q-112 0 -159 -58q-39 -50 -39 -157v-121z" />
<glyph unicode="&#xf1;" horiz-adv-x="1075" d="M123 51v905q0 26 11.5 37t37.5 11h76q27 0 38 -7t15 -30l10 -49h6q100 104 279 104q111 0 186.5 -32.5t124.5 -104.5q56 -87 56 -275v-559q0 -30 -12 -40.5t-46 -10.5h-129q-34 0 -45.5 10t-11.5 41v572q0 63 -9.5 99t-33.5 60q-43 43 -135 43q-91 0 -131 -37 q-22 -20 -32.5 -51t-10.5 -90v-596q0 -30 -12 -40.5t-46 -10.5h-129q-34 0 -45.5 10t-11.5 41zM223 1243q78 172 209 172q64 0 125 -39l55 -35q48 -28 72 -28q42 0 88 71q20 33 57 7l45 -31q34 -21 15 -60q-44 -79 -100 -120t-117 -41q-62 0 -123 39l-55 36q-39 25 -62 25 q-43 0 -88 -74q-12 -20 -24.5 -22t-32.5 10l-51 31q-30 18 -13 59z" />
<glyph unicode="&#xf2;" horiz-adv-x="1024" d="M82 471v61q0 251 104 369q105 121 326 121t326 -121q104 -118 104 -369v-61q0 -251 -104 -369q-107 -120 -326 -120t-326 120q-104 118 -104 369zM254 1321q-3 14 14 39l72 102q14 21 27 23.5t36 -12.5l328 -228q29 -21 2 -63l-43 -60q-27 -42 -74 -14l-331 182 q-28 17 -31 31zM330 481q0 -192 45 -250q23 -28 53.5 -41.5t83.5 -13.5t83.5 13.5t53.5 41.5q45 58 45 250v43q0 190 -45 248q-23 29 -53.5 42t-83.5 13t-83.5 -13t-53.5 -42q-45 -58 -45 -248v-43z" />
<glyph unicode="&#xf3;" horiz-adv-x="1024" d="M82 471v61q0 251 104 369q105 121 326 121t326 -121q104 -118 104 -369v-61q0 -251 -104 -369q-107 -120 -326 -120t-326 120q-104 118 -104 369zM330 481q0 -192 45 -250q23 -28 53.5 -41.5t83.5 -13.5t83.5 13.5t53.5 41.5q45 58 45 250v43q0 190 -45 248 q-23 29 -53.5 42t-83.5 13t-83.5 -13t-53.5 -42q-45 -58 -45 -248v-43zM356 1182q-27 42 2 63l328 228q23 15 36.5 12.5t27.5 -23.5l71 -102q18 -25 14.5 -39t-30.5 -31l-332 -182q-47 -28 -74 14z" />
<glyph unicode="&#xf4;" horiz-adv-x="1024" d="M82 471v61q0 251 104 369q105 121 326 121t326 -121q104 -118 104 -369v-61q0 -251 -104 -369q-107 -120 -326 -120t-326 120q-104 118 -104 369zM215 1227l186 223q18 23 52 23h116q31 0 52 -23l188 -223q28 -32 -4 -60l-57 -43q-36 -28 -70 4l-166 160h-6l-160 -160 q-32 -34 -70 -4l-57 43q-32 28 -4 60zM330 481q0 -192 45 -250q23 -28 53.5 -41.5t83.5 -13.5t83.5 13.5t53.5 41.5q45 58 45 250v43q0 190 -45 248q-23 29 -53.5 42t-83.5 13t-83.5 -13t-53.5 -42q-45 -58 -45 -248v-43z" />
<glyph unicode="&#xf5;" horiz-adv-x="1024" d="M82 471v61q0 251 104 369q105 121 326 121t326 -121q104 -118 104 -369v-61q0 -251 -104 -369q-107 -120 -326 -120t-326 120q-104 118 -104 369zM182 1243q78 172 209 172q64 0 125 -39l55 -35q48 -28 72 -28q42 0 88 71q20 33 57 7l46 -31q19 -12 22 -25t-8 -35 q-44 -79 -100 -120t-117 -41q-62 0 -123 39l-55 36q-39 25 -62 25q-43 0 -88 -74q-12 -20 -24.5 -22t-32.5 10l-51 31q-30 18 -13 59zM330 481q0 -192 45 -250q23 -28 53.5 -41.5t83.5 -13.5t83.5 13.5t53.5 41.5q45 58 45 250v43q0 190 -45 248q-23 29 -53.5 42t-83.5 13 t-83.5 -13t-53.5 -42q-45 -58 -45 -248v-43z" />
<glyph unicode="&#xf6;" horiz-adv-x="1024" d="M82 471v61q0 251 104 369q105 121 326 121t326 -121q104 -118 104 -369v-61q0 -251 -104 -369q-107 -120 -326 -120t-326 120q-104 118 -104 369zM227 1270v49q0 46 29.5 73t79.5 27h20q51 0 82 -27t31 -73v-49q0 -50 -30 -75.5t-83 -25.5h-20q-51 0 -80 25.5t-29 75.5z M330 481q0 -192 45 -250q23 -28 53.5 -41.5t83.5 -13.5t83.5 13.5t53.5 41.5q45 58 45 250v43q0 190 -45 248q-23 29 -53.5 42t-83.5 13t-83.5 -13t-53.5 -42q-45 -58 -45 -248v-43zM563 1270v49q0 46 29.5 73t79.5 27h18q52 0 81.5 -27t29.5 -73v-49q0 -101 -111 -101h-18 q-51 0 -80 25.5t-29 75.5z" />
<glyph unicode="&#xf7;" d="M66 494v73q0 20 1.5 31.5t8.5 23t22.5 16.5t40.5 5h828q47 0 60 -18t13 -58v-78q0 -26 -6 -41.5t-19 -21.5t-22 -7t-26 -1h-828q-48 0 -60.5 17t-12.5 59zM408 145v33q0 67 35.5 98t95.5 31h22q129 0 129 -129v-33q0 -65 -34 -98t-95 -33h-22q-70 0 -100.5 31.5 t-30.5 99.5zM408 885v33q0 67 35.5 98t95.5 31h22q129 0 129 -129v-33q0 -65 -34 -98t-95 -33h-22q-70 0 -100.5 31.5t-30.5 99.5z" />
<glyph unicode="&#xf8;" horiz-adv-x="1024" d="M82 471v61q0 251 104 369q105 121 326 121q104 0 186 -29l62 111q13 26 31 29.5t49 -13.5l28 -16q30 -17 34.5 -32.5t-11.5 -41.5l-66 -117l13 -12q104 -118 104 -369v-61q0 -251 -104 -369q-107 -120 -326 -120q-101 0 -184 26l-58 -102q-14 -26 -31.5 -30t-48.5 13 l-28 17q-30 17 -34.5 32.5t11.5 41.5l60 108l-13 14q-104 118 -104 369zM330 481q0 -106 6 -145l264 477q-32 14 -88 14q-53 0 -83.5 -13t-53.5 -42q-45 -58 -45 -248v-43zM428 190q28 -14 84 -14q53 0 83.5 13.5t53.5 41.5q45 58 45 250v43q0 80 -6 138z" />
<glyph unicode="&#xf9;" horiz-adv-x="1044" d="M113 315v637q0 31 11.5 41.5t45.5 10.5h129q34 0 45.5 -10.5t11.5 -41.5v-612q0 -94 45 -127q39 -27 123 -27q87 0 123 27q41 33 41 127v612q0 31 11.5 41.5t45.5 10.5h129q34 0 46 -10.5t12 -41.5v-637q0 -102 -28 -165.5t-89 -102.5q-101 -65 -291 -65q-199 0 -295 65 q-116 78 -116 268zM235.5 1321q-3.5 14 14.5 39l72 102q14 21 27 23.5t36 -12.5l328 -228q29 -21 2 -63l-43 -60q-27 -42 -74 -14l-332 182q-27 17 -30.5 31z" />
<glyph unicode="&#xfa;" horiz-adv-x="1044" d="M113 315v637q0 31 11.5 41.5t45.5 10.5h129q34 0 45.5 -10.5t11.5 -41.5v-612q0 -94 45 -127q39 -27 123 -27q87 0 123 27q41 33 41 127v612q0 31 11.5 41.5t45.5 10.5h129q34 0 46 -10.5t12 -41.5v-637q0 -102 -28 -165.5t-89 -102.5q-101 -65 -291 -65q-199 0 -295 65 q-116 78 -116 268zM350 1182q-27 42 2 63l328 228q23 15 36 12.5t27 -23.5l72 -102q18 -25 14.5 -39t-30.5 -31l-332 -182q-47 -28 -74 14z" />
<glyph unicode="&#xfb;" horiz-adv-x="1044" d="M113 315v637q0 31 11.5 41.5t45.5 10.5h129q34 0 45.5 -10.5t11.5 -41.5v-612q0 -94 45 -127q39 -27 123 -27q87 0 123 27q41 33 41 127v612q0 31 11.5 41.5t45.5 10.5h129q34 0 46 -10.5t12 -41.5v-637q0 -102 -28 -165.5t-89 -102.5q-101 -65 -291 -65q-199 0 -295 65 q-116 78 -116 268zM227 1227l187 223q18 23 51 23h117q30 0 51 -23l188 -223q28 -32 -4 -60l-57 -43q-36 -28 -70 4l-166 160h-6l-160 -160q-31 -34 -69 -4l-58 43q-32 28 -4 60z" />
<glyph unicode="&#xfc;" horiz-adv-x="1044" d="M113 315v637q0 31 11.5 41.5t45.5 10.5h129q34 0 45.5 -10.5t11.5 -41.5v-612q0 -94 45 -127q39 -27 123 -27q87 0 123 27q41 33 41 127v612q0 31 11.5 41.5t45.5 10.5h129q34 0 46 -10.5t12 -41.5v-637q0 -102 -28 -165.5t-89 -102.5q-101 -65 -291 -65q-199 0 -295 65 q-116 78 -116 268zM242 1270v49q0 46 29.5 73t78.5 27h21q51 0 81.5 -27t30.5 -73v-49q0 -50 -30 -75.5t-82 -25.5h-21q-51 0 -79.5 25.5t-28.5 75.5zM578 1270v49q0 46 29.5 73t78.5 27h19q52 0 81 -27t29 -73v-49q0 -101 -110 -101h-19q-51 0 -79.5 25.5t-28.5 75.5z" />
<glyph unicode="&#xfd;" horiz-adv-x="937" d="M23 956q-11 48 47 48h139q49 0 57 -43q91 -400 203 -750h8q130 374 197 750q8 43 57 43h137q58 0 47 -48q-144 -668 -436 -1302q-16 -37 -41 -37q-24 0 -47 10l-100 41q-23 10 -28.5 23t5.5 33q99 206 125 272q-44 13 -74 44t-51 93q-125 354 -245 823zM322 1182 q-27 42 2 63l327 228q23 15 36.5 12.5t27.5 -23.5l71 -102q18 -25 14.5 -39t-30.5 -31l-332 -182q-47 -27 -73 14z" />
<glyph unicode="&#xfe;" horiz-adv-x="1114" d="M121 -311v1650q0 26 11 36.5t38 10.5h141q27 0 38.5 -6t15.5 -26v-404q86 72 233 72q204 0 301 -111q51 -59 72.5 -141t21.5 -221v-78q0 -264 -104 -379q-98 -110 -318 -110q-123 0 -206 55v-348q0 -30 -12 -40.5t-46 -10.5h-129q-34 0 -45.5 10t-11.5 41zM365 358 q0 -97 43 -137q44 -41 141 -41q98 0 147 58q30 36 39.5 87t9.5 146v59q0 99 -11 153t-38 87q-44 53 -147 53q-104 0 -146 -45q-38 -41 -38 -151v-269z" />
<glyph unicode="&#xff;" horiz-adv-x="937" d="M23 956q-11 48 47 48h139q49 0 57 -43q91 -400 203 -750h8q130 374 197 750q8 43 57 43h137q58 0 47 -48q-144 -668 -436 -1302q-16 -37 -41 -37q-24 0 -47 10l-100 41q-23 10 -28.5 23t5.5 33q99 206 125 272q-44 13 -74 44t-51 93q-125 354 -245 823zM193 1270v49 q0 46 29.5 73t78.5 27h21q51 0 81.5 -27t30.5 -73v-49q0 -50 -30 -75.5t-82 -25.5h-21q-51 0 -79.5 25.5t-28.5 75.5zM528 1270v49q0 46 29.5 73t79.5 27h18q52 0 81.5 -27t29.5 -73v-49q0 -101 -111 -101h-18q-51 0 -80 25.5t-29 75.5z" />
<glyph unicode="&#x152;" horiz-adv-x="1761" d="M98 621v84q0 355 142 509q123 129 376 129q168 0 299 -96q11 16 31 33q57 45 211 45h471q34 0 42.5 -9t8.5 -40v-113q0 -30 -8.5 -39.5t-42.5 -9.5h-446q-63 0 -68 -61q-12 -144 -12 -265h459q34 0 42.5 -9t8.5 -40v-112q0 -30 -8.5 -39.5t-42.5 -9.5h-459 q0 -164 14 -310q3 -34 17.5 -45.5t48.5 -11.5h444q34 0 43.5 -9.5t9.5 -39.5v-113q0 -29 -9.5 -39t-43.5 -10h-469q-159 0 -219 49q-13 8 -29 33q-127 -100 -303 -100q-243 0 -364 127q-144 156 -144 512zM362 641q0 -126 12.5 -213t55.5 -149q57 -84 203 -84q66 0 127 23.5 t102 62.5q-14 143 -14 340v84q0 176 12 329q-40 44 -101 70t-126 26q-146 0 -203 -83q-43 -62 -55.5 -149t-12.5 -214v-43z" />
<glyph unicode="&#x153;" horiz-adv-x="1593" d="M82 471v61q0 251 104 369q105 121 326 121q189 0 303 -111q114 111 305 111q186 0 289 -92q54 -48 79 -126t25 -220v-140q0 -33 -11.5 -46t-43.5 -13h-512q3 -121 51 -164q44 -41 181 -41q52 0 115.5 12t105.5 31q18 10 33.5 3.5t23.5 -36.5l27 -98q6 -24 -1 -35.5 t-36 -21.5q-138 -53 -297 -53q-120 0 -200.5 25.5t-135.5 82.5q-99 -108 -301 -108q-219 0 -326 120q-104 118 -104 369zM330 481q0 -192 45 -250q23 -28 53.5 -41.5t83.5 -13.5t84.5 13.5t54.5 41.5q45 58 45 250v43q0 190 -45 248q-23 29 -54 42t-85 13q-53 0 -83.5 -13 t-53.5 -42q-45 -58 -45 -248v-43zM942 578h301q27 0 27 28q0 138 -39 182q-36 39 -119 39q-79 0 -117 -41q-53 -56 -53 -208z" />
<glyph unicode="&#x178;" horiz-adv-x="1021" d="M29 1282q-7 25 4.5 34t46.5 9h141q26 0 36 -1.5t18.5 -11t13.5 -30.5q33 -139 94 -320.5t121 -312.5h14q58 128 119 309t96 324q7 30 19.5 36.5t48.5 6.5h141q35 0 46.5 -9t4.5 -34q-151 -508 -354 -854v-377q0 -32 -10.5 -41.5t-44.5 -9.5h-148q-34 0 -44.5 9.5 t-10.5 41.5v377q-206 364 -352 854zM227 1585v49q0 46 30 73.5t79 27.5h20q51 0 82 -27.5t31 -73.5v-49q0 -50 -30 -75t-83 -25h-20q-51 0 -80 25t-29 75zM563 1585v49q0 46 30 73.5t79 27.5h18q52 0 81.5 -27.5t29.5 -73.5v-49q0 -100 -111 -100h-18q-51 0 -80 25t-29 75z " />
<glyph unicode="&#x2c6;" horiz-adv-x="757" d="M82 1227l186 223q18 23 51 23h117q30 0 51 -23l189 -223q28 -32 -4 -60l-58 -43q-16 -14 -33 -14t-36 18l-166 160h-6l-160 -160q-32 -34 -70 -4l-57 43q-32 28 -4 60z" />
<glyph unicode="&#x2dc;" horiz-adv-x="757" d="M38 1208q-2 14 7 35q78 172 209 172q64 0 125 -39l55 -35q48 -28 72 -28q42 0 88 71q20 33 57 7l45 -31q34 -21 15 -60q-44 -79 -100 -120t-117 -41q-62 0 -123 39l-56 36q-39 25 -61 25q-43 0 -88 -74q-12 -20 -24.5 -22t-32.5 10l-52 31q-17 10 -19 24z" />
<glyph unicode="&#x2000;" horiz-adv-x="902" />
<glyph unicode="&#x2001;" horiz-adv-x="1804" />
<glyph unicode="&#x2002;" horiz-adv-x="902" />
<glyph unicode="&#x2003;" horiz-adv-x="1804" />
<glyph unicode="&#x2004;" horiz-adv-x="601" />
<glyph unicode="&#x2005;" horiz-adv-x="451" />
<glyph unicode="&#x2006;" horiz-adv-x="300" />
<glyph unicode="&#x2007;" horiz-adv-x="300" />
<glyph unicode="&#x2008;" horiz-adv-x="225" />
<glyph unicode="&#x2009;" horiz-adv-x="360" />
<glyph unicode="&#x200a;" horiz-adv-x="100" />
<glyph unicode="&#x2010;" horiz-adv-x="681" d="M68 496v69q0 39 14.5 57.5t62.5 18.5h392q48 0 62.5 -18.5t14.5 -57.5v-73q0 -26 -6.5 -41.5t-20 -21.5t-23 -7.5t-27.5 -1.5h-392q-49 0 -63 17.5t-14 58.5z" />
<glyph unicode="&#x2011;" horiz-adv-x="681" d="M68 496v69q0 39 14.5 57.5t62.5 18.5h392q48 0 62.5 -18.5t14.5 -57.5v-73q0 -26 -6.5 -41.5t-20 -21.5t-23 -7.5t-27.5 -1.5h-392q-49 0 -63 17.5t-14 58.5z" />
<glyph unicode="&#x2012;" horiz-adv-x="681" d="M68 496v69q0 39 14.5 57.5t62.5 18.5h392q48 0 62.5 -18.5t14.5 -57.5v-73q0 -26 -6.5 -41.5t-20 -21.5t-23 -7.5t-27.5 -1.5h-392q-49 0 -63 17.5t-14 58.5z" />
<glyph unicode="&#x2013;" horiz-adv-x="1024" d="M0 496v69q0 39 15 57.5t63 18.5h866q47 0 63.5 -17.5t16.5 -58.5v-73q0 -39 -16.5 -55.5t-63.5 -16.5h-866q-49 0 -63.5 17.5t-14.5 58.5z" />
<glyph unicode="&#x2014;" horiz-adv-x="2048" d="M0 492v73q0 41 16.5 58.5t63.5 17.5h1888q47 0 63.5 -17.5t16.5 -58.5v-73q0 -39 -16.5 -55.5t-63.5 -16.5h-1888q-47 0 -63.5 16.5t-16.5 55.5z" />
<glyph unicode="&#x2018;" horiz-adv-x="522" d="M102 995v39q0 86 55.5 213.5t131.5 216.5q19 23 33 25t45 -14l51 -29q47 -26 18 -62q-38 -51 -88 -137q-20 -35 -20.5 -54.5t18.5 -31.5l23 -14q24 -14 34.5 -36t10.5 -64v-62q0 -59 -36.5 -89t-101.5 -30h-38q-64 0 -100 32.5t-36 96.5z" />
<glyph unicode="&#x2019;" horiz-adv-x="522" d="M86 969q38 51 88 137q20 35 20.5 54.5t-18.5 31.5l-22 14q-24 14 -34.5 36.5t-10.5 64.5v61q0 59 36 89t101 30h39q63 0 99 -32.5t36 -96.5v-39q0 -86 -55.5 -213.5t-131.5 -216.5q-19 -22 -32.5 -24.5t-44.5 14.5l-52 28q-47 26 -18 62z" />
<glyph unicode="&#x201a;" horiz-adv-x="522" d="M86 -248q38 51 88 137q20 35 20.5 54.5t-18.5 31.5l-22 15q-24 14 -34.5 36t-10.5 64v62q0 59 36 88.5t101 29.5h39q63 0 99 -32.5t36 -96.5v-39q0 -86 -55.5 -213.5t-131.5 -216.5q-19 -22 -32.5 -24.5t-44.5 14.5l-52 29q-47 25 -18 61z" />
<glyph unicode="&#x201c;" horiz-adv-x="960" d="M102 995v39q0 86 55.5 213.5t131.5 216.5q19 23 33 25t45 -14l51 -29q47 -26 18 -62q-38 -51 -88 -137q-20 -35 -20.5 -54.5t18.5 -31.5l23 -14q24 -14 34.5 -36t10.5 -64v-62q0 -59 -36.5 -89t-101.5 -30h-38q-64 0 -100 32.5t-36 96.5zM541 995v39q0 87 55 214t131 216 q19 23 33 25t45 -14l51 -29q47 -26 18 -62q-38 -51 -88 -137q-20 -35 -20.5 -54.5t18.5 -31.5l23 -14q24 -14 34.5 -36t10.5 -64v-62q0 -59 -36 -89t-101 -30h-39q-63 0 -99 32.5t-36 96.5z" />
<glyph unicode="&#x201d;" horiz-adv-x="960" d="M86 979q38 51 88 137q20 35 20.5 54.5t-18.5 31.5l-22 15q-24 14 -34.5 36t-10.5 64v61q0 59 36 89t101 30h39q63 0 99 -32.5t36 -96.5v-39q0 -86 -55.5 -213.5t-131.5 -216.5q-19 -22 -32.5 -24.5t-44.5 14.5l-52 29q-47 25 -18 61zM524 979q38 51 88 137 q20 35 20.5 54.5t-18.5 31.5l-22 15q-24 14 -34.5 36t-10.5 64v61q0 59 36 89t101 30h39q63 0 99 -32.5t36 -96.5v-39q0 -87 -55 -214t-131 -216q-19 -22 -33 -24.5t-45 14.5l-51 29q-47 26 -19 61z" />
<glyph unicode="&#x201e;" horiz-adv-x="960" d="M86 -248q38 51 88 137q20 35 20.5 54.5t-18.5 31.5l-22 15q-24 14 -34.5 36t-10.5 64v62q0 59 36 88.5t101 29.5h39q63 0 99 -32.5t36 -96.5v-39q0 -86 -55.5 -213.5t-131.5 -216.5q-19 -22 -32.5 -24.5t-44.5 14.5l-52 29q-47 25 -18 61zM524 -248q38 51 88 137 q20 35 20.5 54.5t-18.5 31.5l-22 15q-24 14 -34.5 36t-10.5 64v62q0 59 36 88.5t101 29.5h39q63 0 99 -32.5t36 -96.5v-39q0 -87 -55 -214t-131 -216q-19 -22 -33 -24.5t-45 14.5l-51 29q-47 26 -19 61z" />
<glyph unicode="&#x2022;" horiz-adv-x="636" d="M74 535q0 103 70 174t173 71t174.5 -71t71.5 -174t-71.5 -173.5t-174.5 -70.5t-173 70.5t-70 173.5z" />
<glyph unicode="&#x2026;" horiz-adv-x="1290" d="M74 113v32q0 67 35.5 98t95.5 31h22q129 0 129 -129v-32q0 -65 -34 -98t-95 -33h-22q-70 0 -100.5 31.5t-30.5 99.5zM504 113v32q0 67 35.5 98t95.5 31h22q129 0 129 -129v-32q0 -65 -34 -98t-95 -33h-22q-70 0 -100.5 31.5t-30.5 99.5zM934 113v32q0 67 35.5 98t95.5 31 h22q130 0 130 -129v-32q0 -65 -34.5 -98t-95.5 -33h-22q-70 0 -100.5 31.5t-30.5 99.5z" />
<glyph unicode="&#x202f;" horiz-adv-x="360" />
<glyph unicode="&#x2039;" horiz-adv-x="653" d="M41 469v16q0 46 39 80l315 258q35 29 59 31t54 -23l49 -43q32 -32 31.5 -54t-29.5 -48l-225 -209l225 -205q24 -21 29.5 -39t-2.5 -33t-29 -34l-49 -43q-29 -26 -52.5 -24.5t-60.5 30.5l-315 260q-39 34 -39 80z" />
<glyph unicode="&#x203a;" horiz-adv-x="653" d="M64.5 233q5.5 18 29.5 39l225 205l-225 209q-29 26 -29.5 48t31.5 54l49 43q30 25 54 23t59 -31l315 -258q39 -34 39 -80v-16q0 -46 -39 -80l-315 -260q-37 -29 -60.5 -30.5t-52.5 24.5l-49 43q-21 19 -29 34t-2.5 33z" />
<glyph unicode="&#x205f;" horiz-adv-x="451" />
<glyph unicode="&#x20ac;" d="M51 469v35q0 48 8 62t47 14h117v122v3h-117q-39 0 -47 12.5t-8 58.5v39q0 49 8 62.5t47 13.5h125q13 127 53 210.5t117 145.5q122 96 330 96q185 0 352 -92q17 -9 20.5 -21.5t-5.5 -37.5l-58 -119q-15 -37 -53 -16q-124 73 -262 73q-103 0 -162 -59q-52 -52 -67 -180h364 q39 0 47 -13.5t8 -62.5v-39q0 -46 -8 -58.5t-47 -12.5h-375v-125h375q39 0 47 -14t8 -62v-35q0 -47 -8 -59.5t-47 -12.5h-356q14 -82 53 -127q63 -75 215 -75q124 0 242 49q24 7 32.5 0t14.5 -35l22 -98q7 -27 3.5 -43.5t-23.5 -24.5q-60 -27 -147.5 -44t-159.5 -17 q-145 0 -240 27.5t-158 90.5q-99 96 -125 297h-127q-39 0 -47 12.5t-8 59.5z" />
<glyph unicode="&#x2122;" horiz-adv-x="1554" d="M78 1231v65q0 25 9 34t34 9h450q25 0 34 -9t9 -34v-65q0 -25 -9.5 -34t-37.5 -9h-127v-447q0 -43 -57 -43h-78q-30 0 -42.5 10.5t-12.5 32.5v447h-125q-28 0 -37.5 9t-9.5 34zM649 741q6 283 31 543q3 34 15 44.5t44 10.5h174q39 0 53 -10.5t19 -38.5q36 -190 70 -342h6 q18 74 69 342q5 28 18 38.5t52 10.5h170q35 0 48 -10.5t16 -44.5q20 -238 26 -543q0 -43 -53 -43h-80q-55 0 -55 43q0 233 -8 416h-7q-44 -220 -79 -354q-6 -24 -20.5 -32.5t-51.5 -8.5h-98q-35 0 -49.5 8.5t-20.5 32.5q-39 150 -80 354h-6q-8 -183 -8 -416q0 -43 -56 -43 h-86q-53 0 -53 43z" />
<glyph unicode="&#xe000;" horiz-adv-x="1003" d="M0 0v1004h1004v-1004h-1004z" />
</font>
</defs>
</svg>
